<svg xmlns="http://www.w3.org/2000/svg" xmlns:xlink="http://www.w3.org/1999/xlink" width="1341" zoomAndPan="magnify" viewBox="0 0 1006.5 821.999993" height="1096" preserveAspectRatio="xMidYMid meet" version="1.0"><path fill="#000000" d="M 703.109375 761.566406 C 579.527344 822.210938 354.578125 774.695312 272.761719 684.445312 C 132.820312 530.078125 163.226562 288.210938 223.671875 206.953125 C 377.488281 0.207031 525.964844 143.902344 606.566406 164.292969 C 725.472656 194.375 843.179688 195.027344 862.195312 412.976562 C 873.648438 544.246094 856.921875 686.089844 703.109375 761.566406 " fill-opacity="1" fill-rule="nonzero"/><path fill="#000000" d="M 818.261719 334.6875 C 780.132812 298.472656 759.976562 296.839844 743.636719 260.902344 C 734.453125 240.699219 744.453125 155.253906 661.9375 151.988281 C 651.292969 151.5625 610.371094 153.800781 605.015625 196.640625 C 602.855469 213.902344 603.886719 225.910156 605.027344 235.582031 C 606.019531 243.925781 605.875 252.375 604.429688 260.648438 C 602.296875 272.84375 597.136719 286.539062 585.335938 295.363281 C 584.421875 296.046875 585.210938 297.488281 586.28125 297.082031 C 592.410156 294.753906 601.035156 290.425781 607.195312 283.015625 C 607.742188 282.355469 608.804688 282.816406 608.703125 283.667969 C 608.65625 284.058594 608.605469 284.460938 608.554688 284.863281 C 606.179688 302.972656 576.960938 321.070312 585.132812 356.195312 C 593.304688 391.324219 780.675781 466.472656 811.726562 450.953125 C 842.773438 435.429688 853.386719 368.046875 818.261719 334.6875 " fill-opacity="1" fill-rule="nonzero"/><path fill="#004aad" d="M 791.25 340.214844 C 791.25 340.214844 756.652344 309.773438 704.058594 303.542969 C 704.058594 303.542969 612.710938 302.855469 576.03125 336.757812 C 539.355469 370.65625 517.207031 446.757812 519.28125 503.492188 L 791.25 585.824219 L 791.25 340.214844 " fill-opacity="1" fill-rule="nonzero"/><path fill="#004aad" d="M 679.488281 348.867188 C 679.488281 348.867188 701.289062 354.394531 717.203125 342.632812 L 760.105469 469.9375 C 760.105469 469.9375 738.988281 349.476562 790.886719 340.136719 C 790.886719 340.136719 826.839844 360.960938 820.984375 430.804688 C 814.550781 507.585938 804.742188 560.226562 768.414062 563.335938 C 732.082031 566.449219 689.179688 552.613281 679.488281 348.867188 " fill-opacity="1" fill-rule="nonzero"/><path fill="#004aad" d="M 366.859375 360.9375 L 397.484375 343.453125 C 398.351562 342.960938 399.453125 343.238281 399.972656 344.085938 C 406.609375 354.851562 447.398438 419.011719 477.699219 419.808594 C 510.773438 420.679688 553.269531 355.109375 573.625 339.113281 L 600.714844 426.445312 C 600.714844 426.445312 549.613281 498.277344 457.167969 501.792969 C 405.824219 503.746094 369.972656 377.65625 365.992188 363.023438 C 365.769531 362.210938 366.125 361.355469 366.859375 360.9375 " fill-opacity="1" fill-rule="nonzero"/><path fill="#000000" d="M 756.800781 565.144531 C 740.375 565.144531 728.511719 561.375 719.183594 553.375 C 706.214844 542.25 697.511719 522.625 690.933594 489.734375 C 684.894531 459.515625 680.488281 417.570312 676.207031 349.476562 C 676.164062 348.78125 676.6875 348.183594 677.378906 348.144531 C 678.054688 348.097656 678.664062 348.621094 678.710938 349.316406 C 686.035156 465.714844 694.558594 528.941406 720.816406 551.46875 C 731.816406 560.910156 746.015625 564.085938 768.304688 562.089844 C 768.976562 562.027344 769.601562 562.535156 769.664062 563.226562 C 769.726562 563.914062 769.214844 564.527344 768.527344 564.585938 C 764.375 564.957031 760.476562 565.144531 756.800781 565.144531 " fill-opacity="1" fill-rule="nonzero"/><path fill="#000000" d="M 768.425781 488.691406 C 767.90625 488.691406 767.417969 488.363281 767.238281 487.839844 L 718.214844 343.53125 C 717.996094 342.875 718.339844 342.160156 718.996094 341.9375 C 719.65625 341.714844 720.371094 342.066406 720.589844 342.722656 L 769.613281 487.03125 C 769.835938 487.6875 769.484375 488.398438 768.828125 488.621094 C 768.695312 488.667969 768.558594 488.691406 768.425781 488.691406 " fill-opacity="1" fill-rule="nonzero"/><path fill="#000000" d="M 755.90625 414.644531 C 755.890625 414.644531 755.886719 414.644531 755.878906 414.644531 C 755.1875 414.628906 754.632812 414.058594 754.644531 413.367188 C 755.203125 382.847656 761.054688 361.285156 772.039062 349.28125 C 772.507812 348.773438 773.304688 348.734375 773.8125 349.203125 C 774.320312 349.675781 774.359375 350.464844 773.894531 350.976562 C 763.332031 362.511719 757.699219 383.519531 757.15625 413.410156 C 757.140625 414.09375 756.582031 414.644531 755.90625 414.644531 " fill-opacity="1" fill-rule="nonzero"/><path fill="#000000" d="M 582.957031 439.679688 C 582.261719 439.679688 581.699219 439.117188 581.699219 438.429688 L 581.699219 394.316406 C 581.699219 393.625 582.261719 393.066406 582.957031 393.066406 C 583.644531 393.066406 584.207031 393.625 584.207031 394.316406 L 584.207031 438.429688 C 584.207031 439.117188 583.644531 439.679688 582.957031 439.679688 " fill-opacity="1" fill-rule="nonzero"/><path fill="#ffffff" d="M 654.308594 260.898438 C 654.308594 260.898438 655.175781 284.851562 654.171875 300.824219 C 653.707031 308.351562 648.460938 314.730469 641.1875 316.722656 L 631.621094 319.34375 C 626.691406 320.695312 626.203125 327.492188 630.894531 329.527344 C 649.386719 337.558594 686.554688 347.824219 730.25 327.976562 C 734.90625 325.859375 734.359375 319.082031 729.398438 317.792969 L 710.5625 312.914062 C 703.5625 311.097656 698.367188 305.210938 697.441406 298.039062 L 690.257812 242.386719 L 654.308594 260.898438 " fill-opacity="1" fill-rule="nonzero"/><path fill="#000000" d="M 655.589844 261.652344 C 655.722656 265.953125 656.316406 286.691406 655.429688 300.90625 C 654.925781 308.945312 649.332031 315.789062 641.519531 317.929688 L 631.953125 320.554688 C 629.855469 321.128906 629.003906 322.851562 628.898438 324.269531 C 628.796875 325.6875 629.402344 327.511719 631.394531 328.378906 C 649.519531 336.25 686.398438 346.515625 729.730469 326.835938 C 731.722656 325.929688 732.300781 324.082031 732.175781 322.660156 C 732.058594 321.25 731.179688 319.554688 729.082031 319.011719 L 710.246094 314.125 C 702.710938 312.175781 697.195312 305.921875 696.195312 298.203125 L 689.242188 244.316406 Z M 678.710938 340.691406 C 657.894531 340.691406 641.003906 335.28125 630.394531 330.679688 C 627.761719 329.535156 626.195312 326.949219 626.398438 324.09375 C 626.601562 321.234375 628.523438 318.894531 631.289062 318.136719 L 640.855469 315.515625 C 647.636719 313.652344 652.488281 307.71875 652.921875 300.75 C 653.90625 285.019531 653.0625 261.183594 653.058594 260.945312 L 653.023438 260.148438 L 691.277344 240.449219 L 698.683594 297.878906 C 699.550781 304.578125 704.335938 310.003906 710.878906 311.703125 L 729.71875 316.582031 C 732.484375 317.300781 734.429688 319.597656 734.675781 322.441406 C 734.925781 325.304688 733.390625 327.925781 730.765625 329.117188 C 711.890625 337.6875 694.210938 340.691406 678.710938 340.691406 " fill-opacity="1" fill-rule="nonzero"/><path fill="#ffffff" d="M 629.109375 183.015625 C 621.515625 191.046875 617.582031 201.855469 617.605469 212.910156 C 617.621094 219.1875 620.898438 225.253906 621.902344 233.804688 C 624.488281 255.863281 633.835938 273.480469 659.375 271.746094 C 659.375 271.746094 690.03125 270.078125 693.777344 237.214844 C 693.777344 237.214844 695.570312 220.648438 688.085938 203.175781 C 683.050781 191.441406 668.804688 167.734375 646.75 172.726562 C 639.167969 174.441406 633.40625 178.464844 629.109375 183.015625 " fill-opacity="1" fill-rule="nonzero"/><path fill="#000000" d="M 630.019531 183.875 C 622.796875 191.519531 618.832031 201.828125 618.855469 212.910156 C 618.863281 216.050781 619.738281 219.144531 620.746094 222.730469 C 621.640625 225.914062 622.65625 229.523438 623.144531 233.660156 C 626.222656 259.894531 638.042969 271.9375 659.285156 270.5 C 660.511719 270.429688 688.949219 268.472656 692.527344 237.074219 C 692.546875 236.921875 694.191406 220.613281 686.929688 203.671875 C 684.402344 197.769531 670.585938 168.617188 647.023438 173.953125 C 640.589844 175.410156 634.867188 178.746094 630.019531 183.875 Z M 655.992188 273.121094 C 635.59375 273.121094 623.707031 259.960938 620.652344 233.953125 C 620.1875 230.011719 619.246094 226.65625 618.332031 223.40625 C 617.320312 219.800781 616.359375 216.398438 616.347656 212.914062 C 616.324219 201.191406 620.527344 190.265625 628.195312 182.15625 C 633.394531 176.660156 639.542969 173.074219 646.472656 171.507812 C 671.976562 165.730469 686.566406 196.464844 689.234375 202.683594 C 696.761719 220.253906 695.097656 236.664062 695.019531 237.351562 C 691.199219 270.890625 659.757812 272.980469 659.441406 273 C 658.265625 273.078125 657.117188 273.121094 655.992188 273.121094 " fill-opacity="1" fill-rule="nonzero"/><path fill="#000000" d="M 672.550781 176.472656 C 672.550781 176.472656 669.28125 187.9375 651.324219 202.679688 C 639.675781 212.253906 619.382812 214.429688 615.957031 222.234375 C 615.957031 222.234375 603.46875 174.808594 643.835938 169.398438 C 684.207031 163.988281 672.550781 176.472656 672.550781 176.472656 " fill-opacity="1" fill-rule="nonzero"/><path fill="#000000" d="M 832.972656 598.964844 C 832.851562 598.964844 832.734375 598.945312 832.613281 598.914062 L 588.320312 527.03125 C 587.652344 526.835938 587.277344 526.136719 587.46875 525.476562 C 587.667969 524.8125 588.363281 524.433594 589.023438 524.625 L 833.324219 596.507812 C 833.984375 596.703125 834.367188 597.402344 834.167969 598.066406 C 834.007812 598.609375 833.507812 598.964844 832.972656 598.964844 " fill-opacity="1" fill-rule="nonzero"/><path fill="#ffffff" d="M 391.375 344.945312 C 387.144531 335.757812 383.375 318.027344 379.074219 311.9375 C 374.773438 305.84375 369.726562 300.5625 361.691406 295.519531 C 357.566406 292.929688 349.144531 287.96875 342.6875 286.242188 C 336.234375 284.515625 339.054688 296.976562 344.84375 299.207031 C 350.636719 301.441406 355.09375 305.523438 353.507812 306.617188 C 352.40625 307.378906 349.339844 310.691406 343.429688 309.277344 C 336.804688 307.683594 332.421875 301.453125 332.585938 294.648438 C 332.613281 293.472656 332.730469 292.273438 332.980469 291.109375 C 334.511719 284.007812 331.167969 276.621094 324.492188 273.753906 C 321.332031 272.398438 317.535156 271.714844 313.082031 272.453125 C 306.019531 273.621094 304.332031 313.792969 331.246094 326.734375 C 336.816406 329.414062 359.753906 334.132812 364.472656 340.640625 C 369.195312 347.144531 372.589844 356.335938 372.589844 356.335938 L 391.375 344.945312 " fill-opacity="1" fill-rule="nonzero"/><path fill="#000000" d="M 316.664062 273.410156 C 315.554688 273.410156 314.425781 273.503906 313.285156 273.691406 C 312.449219 273.832031 310.949219 275.824219 310.238281 280.761719 C 308.453125 293.234375 312.726562 316.441406 331.789062 325.609375 C 333.40625 326.386719 336.734375 327.394531 340.589844 328.566406 C 350.113281 331.453125 361.964844 335.046875 365.488281 339.902344 C 369.199219 345.015625 372.0625 351.632812 373.214844 354.496094 L 389.78125 344.445312 C 388.097656 340.53125 386.476562 335.375 384.90625 330.375 C 382.6875 323.296875 380.390625 315.980469 378.046875 312.660156 C 373.253906 305.871094 368.164062 301.0625 361.023438 296.582031 C 356.730469 293.886719 348.597656 289.125 342.363281 287.457031 C 340.921875 287.066406 340.601562 287.648438 340.414062 288.222656 C 339.609375 290.691406 341.808594 296.695312 345.296875 298.039062 C 349.757812 299.761719 354.761719 303.195312 355.066406 305.734375 C 355.160156 306.515625 354.851562 307.214844 354.21875 307.652344 C 354.101562 307.734375 353.960938 307.84375 353.792969 307.976562 C 352.335938 309.148438 348.914062 311.886719 343.132812 310.5 C 336.113281 308.8125 331.148438 302.132812 331.332031 294.621094 C 331.363281 293.277344 331.507812 292.007812 331.757812 290.847656 C 333.191406 284.160156 329.929688 277.457031 323.996094 274.90625 C 321.671875 273.910156 319.21875 273.410156 316.664062 273.410156 Z M 371.9375 358.199219 L 371.410156 356.777344 C 371.378906 356.6875 368.019531 347.660156 363.457031 341.378906 C 360.429688 337.203125 348.050781 333.449219 339.859375 330.960938 C 335.746094 329.714844 332.492188 328.726562 330.703125 327.867188 C 310.433594 318.117188 305.871094 293.578125 307.757812 280.402344 C 308.546875 274.894531 310.363281 271.632812 312.875 271.21875 C 317.132812 270.515625 321.207031 270.980469 324.984375 272.605469 C 332.015625 275.628906 335.894531 283.519531 334.207031 291.378906 C 333.988281 292.382812 333.867188 293.496094 333.835938 294.679688 C 333.683594 301.023438 337.839844 306.648438 343.71875 308.058594 C 348.304688 309.15625 350.855469 307.121094 352.226562 306.019531 C 352.320312 305.945312 352.410156 305.875 352.492188 305.8125 C 351.953125 304.796875 349.015625 302.164062 344.390625 300.382812 C 339.730469 298.582031 336.761719 291.34375 338.027344 287.449219 C 338.730469 285.289062 340.597656 284.386719 343.011719 285.035156 C 349.5625 286.785156 357.945312 291.691406 362.355469 294.457031 C 369.695312 299.066406 375.164062 304.234375 380.097656 311.214844 C 382.664062 314.851562 384.917969 322.027344 387.300781 329.625 C 388.988281 335 390.730469 340.554688 392.511719 344.421875 L 392.980469 345.4375 L 371.9375 358.199219 " fill-opacity="1" fill-rule="nonzero"/><path fill="#ffffff" d="M 364.628906 344.609375 L 387.71875 331.652344 C 388.738281 331.078125 390.03125 331.46875 390.566406 332.511719 L 398.335938 347.605469 C 398.847656 348.601562 398.476562 349.824219 397.5 350.363281 L 374.300781 363.195312 C 373.277344 363.761719 371.988281 363.367188 371.457031 362.328125 L 363.800781 347.347656 C 363.296875 346.363281 363.664062 345.148438 364.628906 344.609375 " fill-opacity="1" fill-rule="nonzero"/><path fill="#000000" d="M 388.726562 332.644531 C 388.589844 332.644531 388.453125 332.675781 388.332031 332.746094 L 365.246094 345.699219 C 364.863281 345.914062 364.71875 346.386719 364.917969 346.78125 L 372.574219 361.757812 C 372.675781 361.957031 372.847656 362.101562 373.058594 362.164062 C 373.273438 362.230469 373.496094 362.207031 373.691406 362.101562 L 396.894531 349.261719 C 397.28125 349.050781 397.425781 348.574219 397.222656 348.179688 L 389.453125 333.082031 C 389.351562 332.886719 389.179688 332.742188 388.964844 332.675781 C 388.886719 332.652344 388.804688 332.644531 388.726562 332.644531 Z M 373.304688 364.710938 C 372.976562 364.710938 372.648438 364.664062 372.328125 364.5625 C 371.457031 364.296875 370.753906 363.707031 370.339844 362.898438 L 362.683594 347.917969 C 361.871094 346.324219 362.457031 344.386719 364.019531 343.511719 L 387.101562 330.5625 C 387.894531 330.113281 388.816406 330.011719 389.6875 330.273438 C 390.558594 330.539062 391.265625 331.128906 391.683594 331.9375 L 399.453125 347.03125 C 400.28125 348.640625 399.6875 350.585938 398.105469 351.457031 L 374.90625 364.292969 C 374.40625 364.570312 373.859375 364.710938 373.304688 364.710938 " fill-opacity="1" fill-rule="nonzero"/><path fill="#000000" d="M 677.273438 260.667969 C 674.855469 260.667969 672.398438 260.328125 669.964844 259.625 L 645.152344 252.425781 L 645.847656 250.015625 L 670.664062 257.214844 C 681.734375 260.425781 693.40625 255.21875 698.402344 244.828125 L 703.460938 234.3125 L 705.722656 235.398438 L 700.660156 245.921875 C 696.226562 255.132812 687.050781 260.667969 677.273438 260.667969 " fill-opacity="1" fill-rule="nonzero"/><path fill="#000000" d="M 703.761719 208.511719 C 703.082031 208.511719 702.527344 207.964844 702.511719 207.285156 C 702.503906 206.972656 701.636719 175.828125 685.105469 160.4375 C 678.523438 154.308594 670.257812 151.445312 660.546875 151.925781 C 659.832031 151.972656 659.265625 151.425781 659.234375 150.738281 C 659.195312 150.046875 659.730469 149.457031 660.421875 149.425781 C 670.84375 148.902344 679.726562 151.996094 686.824219 158.605469 C 704.136719 174.730469 704.984375 205.910156 705.019531 207.230469 C 705.03125 207.921875 704.484375 208.496094 703.792969 208.511719 C 703.78125 208.511719 703.773438 208.511719 703.761719 208.511719 " fill-opacity="1" fill-rule="nonzero"/><path fill="#004aad" d="M 636.097656 251.113281 C 635.621094 247.410156 638.300781 244.019531 642.078125 243.546875 C 645.847656 243.066406 649.285156 245.683594 649.753906 249.386719 C 650.222656 253.089844 647.542969 256.484375 643.773438 256.957031 C 640.003906 257.433594 636.566406 254.816406 636.097656 251.113281 " fill-opacity="1" fill-rule="nonzero"/><path fill="#004aad" d="M 685.816406 224.285156 C 684.5 213.894531 691.15625 204.496094 700.6875 203.289062 C 701.730469 203.160156 705.605469 203.058594 706.617188 203.128906 C 714.886719 203.683594 719.144531 210.667969 720.316406 219.917969 C 721.578125 229.894531 717.777344 239.214844 708.855469 240.988281 C 708.488281 241.0625 705.84375 241.273438 705.464844 241.273438 C 695.015625 241.308594 687.125 234.671875 685.816406 224.285156 " fill-opacity="1" fill-rule="nonzero"/><path fill="#004aad" d="M 689.933594 223.945312 C 688.824219 213.53125 695.664062 204.265625 705.21875 203.246094 C 714.765625 202.226562 723.414062 209.84375 724.523438 220.253906 C 725.636719 230.667969 718.792969 239.933594 709.242188 240.953125 C 699.691406 241.972656 691.046875 234.359375 689.933594 223.945312 " fill-opacity="1" fill-rule="nonzero"/><path fill="#ffffff" d="M 659.425781 240.582031 C 661.6875 237.601562 677.761719 243.695312 684.339844 246.121094 C 690.914062 248.539062 707.867188 271.375 709.25 286.59375 C 710.632812 301.8125 706.136719 327.414062 709.597656 336.40625 C 709.597656 336.40625 701.292969 344.019531 685.71875 341.941406 C 685.71875 341.941406 683.992188 327.414062 680.882812 322.222656 C 677.761719 317.035156 658.734375 303.199219 660.113281 293.855469 C 661.167969 286.773438 674.566406 281.476562 680.96875 279.332031 C 682.003906 278.988281 681.9375 277.5 680.875 277.261719 C 677.589844 276.527344 672.328125 275.929688 666.691406 277.597656 C 657.351562 280.367188 649.042969 275.871094 652.851562 270.679688 C 656.269531 266.023438 669.992188 261.085938 679.773438 262.125 C 680.179688 262.167969 680.324219 261.628906 679.953125 261.460938 C 672.335938 258.105469 653.289062 248.671875 659.425781 240.582031 " fill-opacity="1" fill-rule="nonzero"/><path fill="#000000" d="M 686.84375 340.816406 C 698.757812 342.117188 706.035156 337.535156 708.125 335.980469 C 706.417969 330.386719 707.003906 320.363281 707.621094 309.78125 C 708.09375 301.609375 708.585938 293.160156 708 286.707031 C 706.660156 271.976562 690.0625 249.5625 683.902344 247.296875 L 683.074219 246.992188 C 679.519531 245.675781 674.144531 243.691406 669.324219 242.367188 C 661.410156 240.1875 660.433594 241.335938 660.425781 241.339844 C 659.546875 242.5 659.285156 243.699219 659.621094 245.007812 C 660.746094 249.34375 668.539062 255.066406 680.457031 260.316406 C 681.183594 260.636719 681.566406 261.429688 681.359375 262.195312 C 681.15625 262.964844 680.4375 263.453125 679.640625 263.371094 C 670.3125 262.382812 656.996094 267.148438 653.859375 271.421875 C 653.015625 272.570312 652.933594 273.597656 653.601562 274.542969 C 655.171875 276.78125 660.492188 278.128906 666.332031 276.402344 C 672.171875 274.667969 677.609375 275.246094 681.144531 276.042969 C 682.175781 276.269531 682.90625 277.136719 682.953125 278.191406 C 683.011719 279.25 682.371094 280.1875 681.367188 280.523438 C 669.503906 284.496094 662.023438 289.546875 661.351562 294.042969 C 660.492188 299.859375 669.09375 308.28125 675.375 314.425781 C 678.464844 317.449219 680.902344 319.839844 681.953125 321.578125 C 684.71875 326.191406 686.382812 337.40625 686.84375 340.816406 Z M 691.054688 343.558594 C 689.332031 343.558594 687.5 343.445312 685.550781 343.183594 L 684.589844 343.058594 L 684.472656 342.089844 C 684.457031 341.949219 682.742188 327.769531 679.800781 322.867188 C 678.917969 321.402344 676.460938 318.996094 673.621094 316.21875 C 666.582031 309.332031 657.824219 300.761719 658.875 293.671875 C 659.964844 286.300781 672.285156 280.980469 679.960938 278.351562 C 676.726562 277.703125 672.035156 277.324219 667.046875 278.800781 C 660.671875 280.691406 654.007812 279.480469 651.550781 275.988281 C 650.261719 274.152344 650.363281 271.953125 651.839844 269.941406 C 654.953125 265.691406 665.785156 261.191406 675.453125 260.761719 C 668.050781 257.148438 658.726562 251.546875 657.195312 245.636719 C 656.65625 243.5625 657.070312 241.609375 658.421875 239.828125 C 660.710938 236.8125 669.515625 239.3125 683.941406 244.640625 L 684.769531 244.945312 C 691.542969 247.4375 709.058594 270.660156 710.496094 286.484375 C 711.097656 293.125 710.601562 301.664062 710.121094 309.925781 C 709.519531 320.328125 708.890625 331.085938 710.761719 335.960938 L 711.070312 336.753906 L 710.441406 337.332031 C 710.128906 337.621094 703.480469 343.558594 691.054688 343.558594 " fill-opacity="1" fill-rule="nonzero"/><path fill="#ffffff" d="M 682.679688 331.59375 C 686.601562 332.140625 697.015625 332.703125 709.605469 326.242188 C 710.371094 325.847656 711.300781 326.3125 711.46875 327.15625 L 714.390625 341.832031 C 714.5 342.394531 714.242188 342.957031 713.746094 343.230469 C 710.347656 345.097656 697.070312 351.59375 683.617188 347.230469 C 683.140625 347.074219 682.792969 346.640625 682.734375 346.136719 L 681.203125 333.035156 C 681.105469 332.1875 681.832031 331.472656 682.679688 331.59375 " fill-opacity="1" fill-rule="nonzero"/><path fill="#000000" d="M 682.492188 332.832031 C 682.484375 332.832031 682.472656 332.835938 682.46875 332.847656 L 683.980469 345.992188 C 696.863281 350.207031 709.554688 344.101562 713.140625 342.136719 L 710.238281 327.398438 C 697.261719 333.984375 686.519531 333.394531 682.503906 332.835938 C 682.5 332.835938 682.496094 332.832031 682.492188 332.832031 Z M 693.273438 349.96875 C 690.039062 349.96875 686.648438 349.53125 683.234375 348.425781 C 682.285156 348.117188 681.605469 347.273438 681.484375 346.28125 L 679.960938 333.179688 C 679.867188 332.386719 680.144531 331.613281 680.710938 331.054688 C 681.28125 330.496094 682.054688 330.242188 682.847656 330.351562 C 686.628906 330.882812 696.753906 331.425781 709.03125 325.128906 C 709.742188 324.765625 710.574219 324.753906 711.300781 325.105469 C 712.027344 325.457031 712.535156 326.113281 712.695312 326.910156 L 715.621094 341.589844 C 715.835938 342.6875 715.328125 343.789062 714.347656 344.332031 C 711.484375 345.902344 703.128906 349.96875 693.273438 349.96875 " fill-opacity="1" fill-rule="nonzero"/><path fill="#000000" d="M 464.695312 171.59375 L 464.703125 171.59375 Z M 503.355469 151.484375 C 500.03125 151.484375 496.683594 151.863281 493.363281 152.617188 C 481.839844 155.265625 472.035156 162.242188 465.757812 172.257812 C 459.476562 182.277344 457.480469 194.140625 460.128906 205.660156 C 462.773438 217.179688 469.746094 226.988281 479.769531 233.261719 C 500.457031 246.21875 527.824219 239.929688 540.785156 219.253906 C 547.066406 209.230469 549.066406 197.371094 546.414062 185.851562 C 543.765625 174.328125 536.792969 164.527344 526.773438 158.25 C 519.636719 153.78125 511.574219 151.484375 503.355469 151.484375 Z M 503.195312 242.507812 C 494.714844 242.507812 486.140625 240.207031 478.4375 235.386719 C 467.851562 228.753906 460.480469 218.398438 457.683594 206.222656 C 454.882812 194.046875 456.996094 181.515625 463.632812 170.929688 C 470.265625 160.34375 480.625 152.972656 492.800781 150.179688 C 504.980469 147.382812 517.519531 149.496094 528.105469 156.125 C 538.695312 162.761719 546.0625 173.113281 548.859375 185.285156 C 551.660156 197.460938 549.542969 210 542.910156 220.582031 C 534.042969 234.734375 518.785156 242.507812 503.195312 242.507812 " fill-opacity="1" fill-rule="nonzero"/><path fill="#000000" d="M 492.339844 168.90625 C 492.113281 168.90625 491.890625 168.933594 491.667969 168.984375 C 490.890625 169.164062 490.234375 169.632812 489.808594 170.308594 L 473.625 196.132812 C 473.207031 196.804688 473.066406 197.605469 473.246094 198.378906 C 473.425781 199.15625 473.894531 199.816406 474.570312 200.238281 L 511.972656 223.664062 C 512.644531 224.085938 513.449219 224.21875 514.21875 224.042969 C 515 223.867188 515.660156 223.394531 516.082031 222.71875 L 532.261719 196.894531 C 532.683594 196.222656 532.820312 195.421875 532.636719 194.652344 C 532.464844 193.871094 531.996094 193.214844 531.316406 192.792969 L 493.914062 169.363281 C 493.433594 169.0625 492.890625 168.90625 492.339844 168.90625 Z M 513.542969 226.628906 C 512.527344 226.628906 511.523438 226.34375 510.644531 225.789062 L 473.238281 202.359375 C 471.996094 201.585938 471.128906 200.371094 470.804688 198.941406 C 470.476562 197.515625 470.722656 196.042969 471.5 194.800781 L 487.6875 168.976562 C 489.292969 166.414062 492.683594 165.632812 495.246094 167.238281 L 532.652344 190.667969 C 533.894531 191.445312 534.757812 192.660156 535.085938 194.089844 C 535.414062 195.515625 535.164062 196.984375 534.386719 198.226562 L 518.203125 224.054688 C 517.425781 225.296875 516.210938 226.160156 514.785156 226.484375 C 514.371094 226.578125 513.957031 226.628906 513.542969 226.628906 " fill-opacity="1" fill-rule="nonzero"/><path fill="#000000" d="M 502.195312 199.34375 C 501.722656 199.34375 501.269531 199.070312 501.058594 198.609375 L 492.625 180.261719 C 492.332031 179.628906 492.609375 178.886719 493.238281 178.597656 C 493.871094 178.308594 494.609375 178.585938 494.902344 179.214844 L 503.335938 197.558594 C 503.625 198.195312 503.351562 198.933594 502.722656 199.222656 C 502.554688 199.300781 502.375 199.34375 502.195312 199.34375 " fill-opacity="1" fill-rule="nonzero"/><path fill="#000000" d="M 502.296875 199.40625 C 501.613281 199.40625 501.054688 198.859375 501.042969 198.175781 C 501.027344 197.480469 501.578125 196.910156 502.273438 196.894531 L 522.460938 196.480469 C 523.144531 196.4375 523.726562 197.015625 523.746094 197.707031 C 523.757812 198.398438 523.207031 198.972656 522.515625 198.988281 L 502.320312 199.40625 C 502.3125 199.40625 502.304688 199.40625 502.296875 199.40625 " fill-opacity="1" fill-rule="nonzero"/><path fill="#004aad" d="M 346.015625 206.078125 L 317.871094 212.417969 C 314.402344 213.203125 311.707031 215.929688 310.964844 219.40625 L 307.214844 237.074219 L 294.339844 222.546875 C 292.140625 220.0625 288.761719 218.972656 285.527344 219.703125 L 259.640625 225.535156 C 254.734375 226.644531 249.863281 223.558594 248.757812 218.65625 L 236.378906 163.726562 C 235.273438 158.824219 238.351562 153.953125 243.257812 152.847656 L 329.632812 133.390625 C 334.539062 132.285156 339.410156 135.363281 340.515625 140.265625 L 352.898438 195.203125 C 354 200.105469 350.921875 204.976562 346.015625 206.078125 " fill-opacity="1" fill-rule="nonzero"/><path fill="#000000" d="M 262.128906 172.847656 C 261.554688 172.847656 261.039062 172.449219 260.90625 171.871094 C 260.75 171.191406 261.175781 170.523438 261.851562 170.371094 L 323.945312 156.214844 C 324.621094 156.054688 325.292969 156.480469 325.445312 157.152344 C 325.601562 157.828125 325.179688 158.503906 324.5 158.65625 L 262.40625 172.8125 C 262.3125 172.835938 262.21875 172.847656 262.128906 172.847656 " fill-opacity="1" fill-rule="nonzero"/><path fill="#000000" d="M 263.945312 187.726562 C 263.371094 187.726562 262.855469 187.335938 262.722656 186.753906 C 262.566406 186.078125 262.988281 185.402344 263.667969 185.25 L 309.6875 174.761719 C 310.359375 174.601562 311.035156 175.023438 311.1875 175.703125 C 311.339844 176.378906 310.917969 177.050781 310.242188 177.203125 L 264.222656 187.695312 C 264.128906 187.71875 264.035156 187.726562 263.945312 187.726562 " fill-opacity="1" fill-rule="nonzero"/><path fill="#000000" d="M 269.027344 202.25 C 268.453125 202.25 267.9375 201.859375 267.804688 201.28125 C 267.652344 200.605469 268.074219 199.933594 268.75 199.777344 L 330.84375 185.617188 C 331.519531 185.460938 332.191406 185.886719 332.34375 186.5625 C 332.5 187.238281 332.078125 187.910156 331.402344 188.0625 L 269.304688 202.21875 C 269.210938 202.242188 269.117188 202.25 269.027344 202.25 " fill-opacity="1" fill-rule="nonzero"/><path fill="#ffffff" d="M 282.917969 286.992188 L 268.347656 301.222656 C 266.550781 302.980469 265.941406 305.617188 266.785156 307.980469 L 271.074219 319.988281 L 257.957031 316.027344 C 255.714844 315.347656 253.28125 315.945312 251.605469 317.582031 L 238.207031 330.671875 C 235.667969 333.148438 231.597656 333.105469 229.117188 330.566406 L 201.324219 302.128906 C 198.84375 299.59375 198.890625 295.527344 201.429688 293.046875 L 246.140625 249.367188 C 248.679688 246.886719 252.75 246.933594 255.230469 249.472656 L 283.023438 277.90625 C 285.503906 280.445312 285.457031 284.511719 282.917969 286.992188 " fill-opacity="1" fill-rule="nonzero"/><path fill="#004aad" d="M 219.277344 298.820312 C 218.953125 298.820312 218.628906 298.695312 218.382812 298.441406 C 217.898438 297.945312 217.90625 297.152344 218.402344 296.671875 L 249.269531 266.535156 C 249.765625 266.054688 250.558594 266.0625 251.042969 266.554688 C 251.527344 267.054688 251.515625 267.847656 251.019531 268.332031 L 220.15625 298.464844 C 219.910156 298.703125 219.59375 298.820312 219.277344 298.820312 " fill-opacity="1" fill-rule="nonzero"/><path fill="#004aad" d="M 227.628906 306.082031 C 227.304688 306.082031 226.980469 305.957031 226.734375 305.707031 C 226.25 305.210938 226.257812 304.417969 226.753906 303.933594 L 257.621094 273.800781 C 258.113281 273.316406 258.910156 273.324219 259.394531 273.820312 C 259.878906 274.316406 259.867188 275.109375 259.371094 275.59375 L 228.507812 305.722656 C 228.261719 305.964844 227.945312 306.082031 227.628906 306.082031 " fill-opacity="1" fill-rule="nonzero"/><path fill="#004aad" d="M 234.894531 313.339844 C 234.570312 313.339844 234.242188 313.214844 233.996094 312.960938 C 233.515625 312.464844 233.523438 311.671875 234.019531 311.1875 L 264.882812 281.054688 C 265.378906 280.574219 266.171875 280.582031 266.65625 281.078125 C 267.140625 281.574219 267.132812 282.367188 266.636719 282.851562 L 235.769531 312.984375 C 235.527344 313.222656 235.210938 313.339844 234.894531 313.339844 " fill-opacity="1" fill-rule="nonzero"/><path fill="#000000" d="M 193.636719 456.519531 C 195.917969 480.816406 217.546875 498.730469 241.847656 496.445312 C 253.621094 495.34375 264.257812 489.722656 271.800781 480.621094 C 279.34375 471.515625 282.890625 460.019531 281.789062 448.25 C 280.683594 436.480469 275.0625 425.84375 265.953125 418.304688 C 256.847656 410.761719 245.351562 407.21875 233.578125 408.320312 C 209.277344 410.597656 191.359375 432.222656 193.636719 456.519531 Z M 237.679688 499.152344 C 213.839844 499.152344 193.410156 480.949219 191.140625 456.75 C 188.730469 431.078125 207.664062 408.234375 233.34375 405.824219 C 259.019531 403.417969 281.875 422.34375 284.285156 448.015625 C 285.453125 460.453125 281.703125 472.601562 273.734375 482.21875 C 265.761719 491.839844 254.523438 497.777344 242.082031 498.945312 C 240.601562 499.082031 239.132812 499.152344 237.679688 499.152344 " fill-opacity="1" fill-rule="nonzero"/><path fill="#000000" d="M 229.699219 426.859375 C 229.679688 426.859375 229.660156 426.863281 229.644531 426.867188 L 227.414062 427.277344 C 225.773438 427.578125 224.308594 428.398438 223.289062 429.585938 C 218.332031 435.375 219.492188 447.417969 226.109375 458.875 C 232.746094 470.371094 242.621094 477.394531 250.121094 475.953125 C 251.632812 475.664062 253.046875 474.824219 254.097656 473.585938 L 255.601562 471.820312 C 255.726562 471.675781 255.730469 471.339844 255.613281 471.191406 L 249.578125 463.714844 C 249.316406 463.390625 248.644531 463.0625 248.207031 463.074219 L 247.199219 463.09375 C 246.511719 463.109375 245.769531 463.273438 244.996094 463.59375 C 240.613281 465.390625 236.425781 462.699219 232.1875 455.367188 C 227.96875 448.058594 227.71875 443.09375 231.429688 440.195312 C 232.125 439.652344 232.753906 438.914062 233.296875 438.011719 L 233.523438 437.636719 C 233.738281 437.28125 233.800781 436.523438 233.652344 436.132812 L 230.195312 427.179688 C 230.132812 427.011719 229.890625 426.859375 229.699219 426.859375 Z M 248.09375 478.648438 C 239.941406 478.648438 230.53125 471.546875 223.9375 460.128906 C 216.683594 447.566406 215.65625 434.640625 221.386719 427.957031 C 222.777344 426.332031 224.753906 425.214844 226.960938 424.8125 L 229.1875 424.398438 C 230.5625 424.148438 232.035156 424.972656 232.535156 426.273438 L 235.992188 435.234375 C 236.417969 436.335938 236.277344 437.925781 235.675781 438.929688 L 235.445312 439.308594 C 234.746094 440.472656 233.914062 441.4375 232.972656 442.167969 C 232.035156 442.90625 229.175781 445.136719 234.359375 454.109375 C 239.558594 463.113281 242.9375 461.730469 244.042969 461.273438 C 245.105469 460.835938 246.152344 460.605469 247.152344 460.589844 L 248.167969 460.570312 C 249.371094 460.546875 250.789062 461.226562 251.527344 462.136719 L 257.5625 469.613281 C 258.441406 470.699219 258.417969 472.382812 257.511719 473.445312 L 256.007812 475.210938 C 254.589844 476.882812 252.664062 478.019531 250.589844 478.417969 C 249.777344 478.570312 248.941406 478.648438 248.09375 478.648438 " fill-opacity="1" fill-rule="nonzero"/><path fill="#ffffff" d="M 587.703125 649.773438 L 350.058594 580.734375 C 346.371094 579.660156 343.832031 576.28125 343.832031 572.441406 L 343.832031 409.628906 C 343.832031 403.878906 349.351562 399.730469 354.878906 401.335938 L 592.523438 470.378906 C 596.210938 471.453125 598.207031 474.882812 598.207031 478.722656 L 597.839844 640.460938 C 597.839844 646.210938 593.230469 651.378906 587.703125 649.773438 " fill-opacity="1" fill-rule="nonzero"/><path fill="#000000" d="M 588.054688 648.570312 C 590.378906 649.246094 592.160156 648.417969 593.25 647.601562 C 595.308594 646.054688 596.589844 643.320312 596.589844 640.460938 L 596.953125 478.722656 C 596.953125 475.175781 595.117188 472.441406 592.175781 471.582031 L 354.527344 402.542969 C 352.277344 401.886719 349.910156 402.320312 348.035156 403.726562 C 346.160156 405.132812 345.085938 407.285156 345.085938 409.628906 L 345.085938 572.441406 C 345.085938 575.703125 347.273438 578.617188 350.410156 579.527344 Z M 589.738281 651.324219 C 588.945312 651.324219 588.148438 651.210938 587.355469 650.980469 L 349.710938 581.9375 C 345.511719 580.71875 342.578125 576.8125 342.578125 572.441406 L 342.578125 409.628906 C 342.578125 406.488281 344.019531 403.609375 346.53125 401.722656 C 349.042969 399.835938 352.214844 399.257812 355.226562 400.136719 L 592.871094 469.179688 C 596.871094 470.335938 599.457031 474.085938 599.457031 478.722656 L 599.09375 640.460938 C 599.09375 644.089844 597.433594 647.597656 594.753906 649.605469 C 593.242188 650.742188 591.511719 651.324219 589.738281 651.324219 " fill-opacity="1" fill-rule="nonzero"/><path fill="#000000" d="M 592.527344 470.378906 L 590.308594 469.734375 L 590.308594 650.058594 C 594.839844 649.960938 598.75 646.324219 598.75 641.480469 L 598.75 478.667969 C 598.75 474.828125 596.210938 471.453125 592.527344 470.378906 " fill-opacity="1" fill-rule="nonzero"/><path fill="#004aad" d="M 484.816406 659.695312 L 484.816406 529.347656 C 484.816406 522.84375 480.546875 517.109375 474.3125 515.25 L 439.539062 504.871094 C 433.460938 503.054688 427.351562 507.605469 427.351562 513.945312 L 427.351562 675.695312 C 427.351562 679.453125 429.820312 682.765625 433.421875 683.835938 L 481.890625 698.308594 C 483.78125 698.871094 485.8125 698.761719 487.632812 697.988281 L 529.71875 680.171875 C 532.625 678.941406 532.429688 674.757812 529.421875 673.804688 L 484.816406 659.695312 " fill-opacity="1" fill-rule="nonzero"/><path fill="#000000" d="M 494.078125 473.605469 L 432.570312 455.183594 C 431.738281 454.933594 431.164062 454.167969 431.164062 453.296875 L 431.164062 447.929688 C 431.164062 446.585938 432.460938 445.621094 433.75 446.007812 L 493.527344 463.910156 C 494.824219 464.300781 495.710938 465.492188 495.710938 466.851562 L 495.710938 472.390625 C 495.710938 473.238281 494.890625 473.851562 494.078125 473.605469 " fill-opacity="1" fill-rule="nonzero"/><path fill="#000000" d="M 486.089844 691.71875 C 485.398438 691.71875 484.835938 691.160156 484.835938 690.464844 L 484.835938 655.070312 C 484.835938 654.375 485.398438 653.816406 486.089844 653.816406 C 486.785156 653.816406 487.347656 654.375 487.347656 655.070312 L 487.347656 690.464844 C 487.347656 691.160156 486.785156 691.71875 486.089844 691.71875 " fill-opacity="1" fill-rule="nonzero"/><path fill="#004aad" d="M 363.796875 649.503906 C 363.796875 670.707031 329.992188 721.667969 321.894531 733.574219 C 321.0625 734.796875 319.265625 734.792969 318.433594 733.566406 C 312.632812 725.042969 293.660156 696.5 283.351562 673.191406 C 279.261719 663.945312 276.53125 655.523438 276.53125 649.503906 C 276.53125 625.410156 296.070312 605.878906 320.164062 605.878906 C 344.261719 605.878906 363.796875 625.410156 363.796875 649.503906 " fill-opacity="1" fill-rule="nonzero"/><path fill="#ffffff" d="M 340.117188 649.503906 C 340.117188 660.515625 331.183594 669.445312 320.164062 669.445312 C 309.144531 669.445312 300.214844 660.515625 300.214844 649.503906 C 300.214844 638.484375 309.144531 629.554688 320.164062 629.554688 C 331.183594 629.554688 340.117188 638.484375 340.117188 649.503906 " fill-opacity="1" fill-rule="nonzero"/><path fill="#000000" d="M 324.054688 668.390625 C 319.511719 668.390625 314.933594 666.9375 311.074219 663.941406 C 306.601562 660.472656 303.746094 655.464844 303.039062 649.847656 C 302.953125 649.160156 303.441406 648.53125 304.128906 648.445312 C 304.808594 648.359375 305.441406 648.84375 305.527344 649.53125 C 306.152344 654.484375 308.667969 658.898438 312.613281 661.960938 C 320.757812 668.285156 332.523438 666.800781 338.847656 658.660156 C 341.910156 654.714844 343.253906 649.816406 342.628906 644.859375 C 342.003906 639.90625 339.488281 635.492188 335.542969 632.433594 C 332.410156 629.996094 328.664062 628.644531 324.714844 628.511719 C 324.023438 628.492188 323.480469 627.910156 323.503906 627.214844 C 323.523438 626.527344 324.097656 625.988281 324.796875 626.007812 C 329.28125 626.15625 333.527344 627.695312 337.082031 630.453125 C 341.554688 633.921875 344.410156 638.929688 345.117188 644.546875 C 345.824219 650.167969 344.300781 655.722656 340.828125 660.195312 C 336.65625 665.570312 330.386719 668.390625 324.054688 668.390625 " fill-opacity="1" fill-rule="nonzero"/><path fill="#004aad" d="M 740.371094 177.203125 C 740.140625 177.203125 739.914062 177.140625 739.707031 177.011719 C 739.121094 176.636719 738.941406 175.867188 739.308594 175.28125 L 763.273438 137.160156 C 763.644531 136.574219 764.421875 136.398438 765.007812 136.765625 C 765.59375 137.136719 765.773438 137.910156 765.398438 138.496094 L 741.433594 176.613281 C 741.191406 176.992188 740.785156 177.203125 740.371094 177.203125 " fill-opacity="1" fill-rule="nonzero"/><path fill="#004aad" d="M 738.191406 207.691406 C 737.839844 207.691406 737.476562 207.539062 737.226562 207.238281 C 736.785156 206.703125 736.863281 205.914062 737.398438 205.472656 L 799.792969 154.046875 C 800.328125 153.609375 801.121094 153.683594 801.558594 154.222656 C 802.003906 154.753906 801.925781 155.542969 801.390625 155.984375 L 738.992188 207.40625 C 738.757812 207.601562 738.476562 207.691406 738.191406 207.691406 " fill-opacity="1" fill-rule="nonzero"/><path fill="#004aad" d="M 746.90625 219.679688 C 746.386719 219.679688 745.898438 219.351562 745.71875 218.835938 C 745.492188 218.183594 745.839844 217.464844 746.492188 217.242188 L 778.085938 206.347656 C 778.738281 206.121094 779.460938 206.472656 779.683594 207.125 C 779.910156 207.78125 779.5625 208.492188 778.90625 208.722656 L 747.316406 219.613281 C 747.175781 219.65625 747.039062 219.679688 746.90625 219.679688 " fill-opacity="1" fill-rule="nonzero"/><path fill="#000000" d="M 387.953125 214.738281 C 385.03125 214.738281 382.652344 217.117188 382.652344 220.035156 C 382.652344 222.960938 385.03125 225.335938 387.953125 225.335938 C 390.875 225.335938 393.253906 222.960938 393.253906 220.035156 C 393.253906 217.117188 390.875 214.738281 387.953125 214.738281 Z M 387.953125 227.84375 C 383.648438 227.84375 380.144531 224.34375 380.144531 220.035156 C 380.144531 215.730469 383.648438 212.230469 387.953125 212.230469 C 392.257812 212.230469 395.761719 215.730469 395.761719 220.035156 C 395.761719 224.34375 392.257812 227.84375 387.953125 227.84375 " fill-opacity="1" fill-rule="nonzero"/><path fill="#000000" d="M 419.816406 242.503906 C 418.015625 242.503906 416.554688 243.972656 416.554688 245.769531 C 416.554688 247.566406 418.015625 249.027344 419.816406 249.027344 C 421.617188 249.027344 423.078125 247.566406 423.078125 245.769531 C 423.078125 243.972656 421.617188 242.503906 419.816406 242.503906 Z M 419.816406 251.539062 C 416.636719 251.539062 414.046875 248.949219 414.046875 245.769531 C 414.046875 242.585938 416.636719 240 419.816406 240 C 422.996094 240 425.585938 242.585938 425.585938 245.769531 C 425.585938 248.949219 422.996094 251.539062 419.816406 251.539062 " fill-opacity="1" fill-rule="nonzero"/><path fill="#000000" d="M 246.410156 575.03125 C 235.523438 575.03125 226.195312 566.71875 225.15625 555.664062 C 224.058594 543.941406 232.703125 533.503906 244.433594 532.40625 C 256.167969 531.3125 266.597656 539.953125 267.699219 551.679688 C 268.007812 554.976562 267.570312 558.203125 266.398438 561.269531 C 266.152344 561.917969 265.429688 562.242188 264.78125 561.996094 C 264.132812 561.746094 263.808594 561.023438 264.054688 560.378906 C 265.089844 557.667969 265.472656 554.820312 265.203125 551.914062 C 264.230469 541.5625 255.007812 533.933594 244.667969 534.90625 C 234.316406 535.875 226.683594 545.085938 227.652344 555.433594 C 228.625 565.78125 237.839844 573.414062 248.1875 572.441406 C 250.722656 572.203125 253.136719 571.476562 255.359375 570.28125 C 255.964844 569.953125 256.726562 570.179688 257.054688 570.792969 C 257.382812 571.402344 257.15625 572.160156 256.546875 572.488281 C 254.027344 573.84375 251.292969 574.667969 248.421875 574.9375 C 247.746094 575 247.078125 575.03125 246.410156 575.03125 " fill-opacity="1" fill-rule="nonzero"/><path fill="#004aad" d="M 295.355469 507.042969 C 295.355469 501.625 299.742188 497.238281 305.160156 497.238281 C 310.574219 497.238281 314.964844 501.625 314.964844 507.042969 C 314.964844 512.453125 310.574219 516.84375 305.160156 516.84375 C 299.742188 516.84375 295.355469 512.453125 295.355469 507.042969 " fill-opacity="1" fill-rule="nonzero"/><path fill="#004aad" d="M 633.609375 744.472656 C 633.609375 739.054688 638 734.667969 643.414062 734.667969 C 648.832031 734.667969 653.21875 739.054688 653.21875 744.472656 C 653.21875 749.882812 648.832031 754.273438 643.414062 754.273438 C 638 754.273438 633.609375 749.882812 633.609375 744.472656 " fill-opacity="1" fill-rule="nonzero"/><path fill="#000000" d="M 375.996094 170.96875 C 375.675781 170.96875 375.355469 170.84375 375.109375 170.601562 L 371.230469 166.71875 C 370.738281 166.230469 370.738281 165.4375 371.230469 164.945312 C 371.71875 164.457031 372.511719 164.457031 373 164.945312 L 376.882812 168.828125 C 377.375 169.320312 377.375 170.109375 376.882812 170.601562 C 376.640625 170.84375 376.320312 170.96875 375.996094 170.96875 " fill-opacity="1" fill-rule="nonzero"/><path fill="#000000" d="M 389.585938 184.554688 C 389.265625 184.554688 388.945312 184.433594 388.699219 184.1875 L 384.816406 180.304688 C 384.324219 179.816406 384.324219 179.027344 384.816406 178.53125 C 385.304688 178.042969 386.097656 178.042969 386.589844 178.53125 L 390.472656 182.417969 C 390.960938 182.90625 390.960938 183.695312 390.472656 184.1875 C 390.226562 184.433594 389.90625 184.554688 389.585938 184.554688 " fill-opacity="1" fill-rule="nonzero"/><path fill="#000000" d="M 372.117188 184.554688 C 371.792969 184.554688 371.472656 184.433594 371.226562 184.1875 C 370.738281 183.695312 370.738281 182.90625 371.226562 182.417969 L 375.109375 178.53125 C 375.601562 178.042969 376.394531 178.042969 376.882812 178.53125 C 377.375 179.027344 377.375 179.816406 376.882812 180.304688 L 373 184.1875 C 372.757812 184.433594 372.4375 184.554688 372.117188 184.554688 " fill-opacity="1" fill-rule="nonzero"/><path fill="#000000" d="M 385.703125 170.96875 C 385.382812 170.96875 385.0625 170.84375 384.816406 170.601562 C 384.328125 170.109375 384.328125 169.3125 384.816406 168.828125 L 388.699219 164.945312 C 389.191406 164.457031 389.984375 164.457031 390.472656 164.945312 C 390.964844 165.4375 390.964844 166.230469 390.472656 166.71875 L 386.589844 170.601562 C 386.347656 170.84375 386.027344 170.96875 385.703125 170.96875 " fill-opacity="1" fill-rule="nonzero"/><path fill="#004aad" d="M 439.316406 304.785156 C 439.289062 304.785156 439.257812 304.785156 439.230469 304.785156 C 435.945312 304.5625 432.597656 304.429688 429.285156 304.390625 C 428.585938 304.382812 428.035156 303.8125 428.042969 303.121094 C 428.050781 302.429688 428.613281 301.851562 429.308594 301.882812 C 432.671875 301.925781 436.066406 302.054688 439.398438 302.285156 C 440.089844 302.328125 440.609375 302.925781 440.566406 303.617188 C 440.519531 304.277344 439.96875 304.785156 439.316406 304.785156 Z M 409.261719 305.257812 C 408.625 305.257812 408.082031 304.769531 408.015625 304.121094 C 407.949219 303.4375 408.457031 302.820312 409.144531 302.753906 C 412.496094 302.429688 415.882812 302.191406 419.214844 302.042969 C 419.914062 302.011719 420.492188 302.550781 420.523438 303.242188 C 420.554688 303.933594 420.015625 304.519531 419.324219 304.550781 C 416.039062 304.695312 412.691406 304.929688 409.386719 305.25 C 409.347656 305.253906 409.304688 305.257812 409.261719 305.257812 Z M 459.203125 307.28125 C 459.125 307.28125 459.050781 307.273438 458.976562 307.265625 C 455.726562 306.664062 452.421875 306.148438 449.140625 305.742188 C 448.453125 305.652344 447.964844 305.027344 448.050781 304.339844 C 448.136719 303.648438 448.765625 303.167969 449.449219 303.25 C 452.777344 303.667969 456.136719 304.1875 459.429688 304.796875 C 460.109375 304.921875 460.558594 305.574219 460.433594 306.257812 C 460.324219 306.859375 459.792969 307.28125 459.203125 307.28125 Z M 389.429688 308.203125 C 388.84375 308.203125 388.320312 307.792969 388.199219 307.195312 C 388.066406 306.515625 388.507812 305.855469 389.183594 305.722656 C 392.492188 305.058594 395.839844 304.476562 399.125 303.988281 C 399.808594 303.886719 400.449219 304.359375 400.550781 305.042969 C 400.652344 305.726562 400.179688 306.363281 399.496094 306.46875 C 396.246094 306.949219 392.945312 307.527344 389.675781 308.179688 C 389.59375 308.195312 389.511719 308.203125 389.429688 308.203125 Z M 478.671875 312.050781 C 478.550781 312.050781 478.425781 312.035156 478.304688 311.996094 C 475.140625 311.027344 471.910156 310.136719 468.703125 309.351562 C 468.03125 309.183594 467.621094 308.507812 467.785156 307.832031 C 467.949219 307.164062 468.632812 306.75 469.300781 306.914062 C 472.550781 307.710938 475.828125 308.613281 479.039062 309.597656 C 479.699219 309.804688 480.074219 310.503906 479.871094 311.164062 C 479.703125 311.703125 479.207031 312.050781 478.671875 312.050781 Z M 493.082031 317.152344 C 492.921875 317.152344 492.761719 317.125 492.609375 317.0625 C 490.996094 316.414062 489.355469 315.78125 487.742188 315.183594 C 487.089844 314.941406 486.757812 314.222656 487 313.570312 C 487.238281 312.925781 487.957031 312.589844 488.609375 312.832031 C 490.25 313.4375 491.910156 314.078125 493.546875 314.738281 C 494.1875 314.996094 494.5 315.726562 494.242188 316.367188 C 494.046875 316.859375 493.574219 317.152344 493.082031 317.152344 " fill-opacity="1" fill-rule="nonzero"/><path fill="#004aad" d="M 318.824219 335.074219 C 318.390625 335.074219 317.96875 334.851562 317.734375 334.445312 C 317.390625 333.847656 317.59375 333.082031 318.195312 332.734375 L 319.140625 332.191406 C 319.742188 331.847656 320.507812 332.058594 320.851562 332.660156 C 321.195312 333.257812 320.984375 334.027344 320.386719 334.367188 L 319.449219 334.90625 C 319.25 335.019531 319.035156 335.074219 318.824219 335.074219 Z M 301.890625 345.816406 C 301.492188 345.816406 301.101562 345.628906 300.859375 345.28125 C 300.460938 344.710938 300.601562 343.929688 301.171875 343.535156 C 303.929688 341.621094 306.753906 339.75 309.570312 337.957031 C 310.15625 337.585938 310.929688 337.761719 311.300781 338.347656 C 311.671875 338.933594 311.5 339.707031 310.914062 340.074219 C 308.125 341.84375 305.328125 343.699219 302.601562 345.59375 C 302.386719 345.746094 302.136719 345.816406 301.890625 345.816406 Z M 285.898438 357.921875 C 285.535156 357.921875 285.175781 357.765625 284.925781 357.464844 C 284.488281 356.929688 284.5625 356.136719 285.097656 355.699219 C 287.683594 353.570312 290.34375 351.46875 293.011719 349.453125 C 293.5625 349.03125 294.351562 349.140625 294.769531 349.691406 C 295.1875 350.246094 295.078125 351.03125 294.523438 351.453125 C 291.886719 353.445312 289.25 355.527344 286.691406 357.632812 C 286.460938 357.828125 286.175781 357.921875 285.898438 357.921875 Z M 270.941406 371.285156 C 270.613281 371.285156 270.285156 371.15625 270.039062 370.902344 C 269.558594 370.402344 269.570312 369.609375 270.066406 369.128906 C 272.472656 366.800781 274.953125 364.488281 277.449219 362.261719 C 277.964844 361.800781 278.757812 361.847656 279.21875 362.363281 C 279.679688 362.878906 279.636719 363.667969 279.117188 364.132812 C 276.652344 366.335938 274.191406 368.625 271.8125 370.925781 C 271.570312 371.164062 271.253906 371.285156 270.941406 371.285156 Z M 257.101562 385.800781 C 256.808594 385.800781 256.511719 385.695312 256.273438 385.488281 C 255.753906 385.03125 255.703125 384.238281 256.160156 383.71875 C 258.375 381.203125 260.664062 378.699219 262.96875 376.285156 C 263.445312 375.785156 264.238281 375.765625 264.742188 376.242188 C 265.242188 376.722656 265.261719 377.515625 264.785156 378.011719 C 262.503906 380.40625 260.238281 382.882812 258.042969 385.375 C 257.796875 385.660156 257.449219 385.800781 257.101562 385.800781 Z M 244.457031 401.371094 C 244.195312 401.371094 243.933594 401.289062 243.707031 401.117188 C 243.152344 400.703125 243.039062 399.917969 243.453125 399.363281 C 245.460938 396.683594 247.546875 394.011719 249.652344 391.417969 C 250.089844 390.882812 250.878906 390.796875 251.417969 391.230469 C 251.957031 391.671875 252.039062 392.460938 251.601562 392.996094 C 249.515625 395.566406 247.449219 398.210938 245.460938 400.867188 C 245.214844 401.199219 244.839844 401.371094 244.457031 401.371094 " fill-opacity="1" fill-rule="nonzero"/><path fill="#004aad" d="M 654.277344 477.472656 C 654.253906 477.472656 654.238281 477.472656 654.222656 477.46875 C 653.53125 477.441406 652.996094 476.855469 653.023438 476.160156 C 653.300781 469.804688 653.601562 466.136719 653.601562 466.097656 C 653.65625 465.40625 654.269531 464.898438 654.953125 464.949219 C 655.644531 465.007812 656.160156 465.613281 656.101562 466.300781 C 656.097656 466.335938 655.808594 469.96875 655.53125 476.273438 C 655.5 476.949219 654.945312 477.472656 654.277344 477.472656 Z M 653.78125 497.527344 C 653.777344 497.527344 653.773438 497.527344 653.769531 497.527344 C 653.078125 497.519531 652.523438 496.957031 652.527344 496.265625 C 652.546875 492.875 652.601562 489.492188 652.683594 486.214844 C 652.695312 485.535156 653.253906 484.992188 653.9375 484.992188 C 653.949219 484.992188 653.953125 484.992188 653.96875 484.992188 C 654.65625 485.007812 655.207031 485.582031 655.191406 486.273438 C 655.109375 489.539062 655.058594 492.90625 655.03125 496.28125 C 655.027344 496.972656 654.46875 497.527344 653.78125 497.527344 Z M 196.609375 498.921875 C 196.503906 498.921875 196.394531 498.90625 196.285156 498.878906 C 195.617188 498.699219 195.21875 498.011719 195.398438 497.34375 C 195.570312 496.6875 195.75 496.03125 195.929688 495.378906 C 196.113281 494.710938 196.804688 494.316406 197.472656 494.5 C 198.140625 494.6875 198.53125 495.375 198.347656 496.042969 C 198.167969 496.691406 197.992188 497.34375 197.820312 497.988281 C 197.671875 498.550781 197.164062 498.921875 196.609375 498.921875 Z M 653.972656 517.613281 C 653.292969 517.613281 652.730469 517.074219 652.71875 516.394531 C 652.628906 513.050781 652.570312 509.664062 652.539062 506.324219 C 652.53125 505.632812 653.089844 505.066406 653.78125 505.058594 C 653.785156 505.058594 653.785156 505.058594 653.792969 505.058594 C 654.480469 505.058594 655.042969 505.609375 655.046875 506.296875 C 655.074219 509.625 655.140625 513 655.222656 516.324219 C 655.242188 517.015625 654.695312 517.59375 654 517.609375 C 653.992188 517.613281 653.980469 517.613281 653.972656 517.613281 Z M 192.242188 518.484375 C 192.167969 518.484375 192.09375 518.472656 192.019531 518.464844 C 191.335938 518.339844 190.882812 517.6875 191.003906 517.007812 C 191.59375 513.734375 192.265625 510.410156 193 507.132812 C 193.148438 506.453125 193.820312 506.03125 194.496094 506.175781 C 195.171875 506.328125 195.597656 507 195.445312 507.675781 C 194.71875 510.925781 194.058594 514.210938 193.472656 517.449219 C 193.363281 518.054688 192.835938 518.484375 192.242188 518.484375 Z M 654.820312 537.679688 C 654.160156 537.679688 653.609375 537.164062 653.570312 536.5 C 653.375 533.195312 653.199219 529.8125 653.058594 526.449219 C 653.035156 525.757812 653.566406 525.175781 654.261719 525.144531 C 654.960938 525.109375 655.539062 525.652344 655.566406 526.34375 C 655.710938 529.691406 655.875 533.058594 656.078125 536.351562 C 656.117188 537.042969 655.589844 537.636719 654.894531 537.679688 C 654.875 537.679688 654.847656 537.679688 654.820312 537.679688 Z M 189.558594 538.347656 C 189.519531 538.347656 189.480469 538.34375 189.445312 538.339844 C 188.753906 538.28125 188.246094 537.671875 188.308594 536.980469 C 188.605469 533.664062 188.988281 530.292969 189.4375 526.960938 C 189.53125 526.277344 190.15625 525.792969 190.847656 525.890625 C 191.535156 525.984375 192.015625 526.613281 191.921875 527.296875 C 191.476562 530.589844 191.101562 533.921875 190.804688 537.207031 C 190.746094 537.859375 190.199219 538.347656 189.558594 538.347656 Z M 656.359375 557.703125 C 655.726562 557.703125 655.179688 557.21875 655.113281 556.570312 C 654.804688 553.253906 654.507812 549.878906 654.253906 546.542969 C 654.207031 545.855469 654.71875 545.25 655.40625 545.195312 C 656.085938 545.148438 656.703125 545.660156 656.757812 546.351562 C 657.011719 549.675781 657.296875 553.03125 657.617188 556.332031 C 657.679688 557.019531 657.171875 557.632812 656.480469 557.699219 C 656.441406 557.703125 656.40625 557.703125 656.359375 557.703125 Z M 188.671875 558.375 C 187.984375 558.375 187.421875 557.8125 187.421875 557.121094 L 187.417969 556.601562 C 187.417969 553.441406 187.488281 550.226562 187.632812 547.039062 C 187.660156 546.347656 188.246094 545.808594 188.9375 545.84375 C 189.628906 545.875 190.167969 546.457031 190.136719 547.152344 C 189.996094 550.296875 189.925781 553.476562 189.925781 556.601562 L 189.925781 557.117188 C 189.929688 557.804688 189.371094 558.371094 188.675781 558.375 C 188.675781 558.375 188.671875 558.375 188.671875 558.375 Z M 658.652344 577.652344 C 658.03125 577.652344 657.492188 577.195312 657.410156 576.570312 C 656.964844 573.296875 656.546875 569.933594 656.164062 566.582031 C 656.085938 565.894531 656.582031 565.269531 657.269531 565.191406 C 657.957031 565.113281 658.578125 565.605469 658.65625 566.292969 C 659.035156 569.632812 659.457031 572.976562 659.890625 576.234375 C 659.988281 576.917969 659.503906 577.550781 658.820312 577.640625 C 658.761719 577.648438 658.703125 577.652344 658.652344 577.652344 Z M 189.675781 578.390625 C 189.035156 578.390625 188.492188 577.90625 188.429688 577.261719 C 188.101562 573.933594 187.851562 570.554688 187.683594 567.203125 C 187.648438 566.511719 188.183594 565.921875 188.875 565.890625 C 189.566406 565.839844 190.152344 566.386719 190.1875 567.078125 C 190.355469 570.386719 190.601562 573.730469 190.925781 577.015625 C 190.992188 577.703125 190.488281 578.320312 189.800781 578.386719 C 189.757812 578.390625 189.714844 578.390625 189.675781 578.390625 Z M 661.761719 597.488281 C 661.164062 597.488281 660.636719 597.0625 660.527344 596.457031 C 659.941406 593.214844 659.382812 589.878906 658.855469 586.53125 C 658.753906 585.847656 659.222656 585.203125 659.90625 585.097656 C 660.59375 584.992188 661.230469 585.457031 661.335938 586.140625 C 661.859375 589.46875 662.414062 592.792969 662.996094 596.015625 C 663.117188 596.695312 662.664062 597.34375 661.980469 597.46875 C 661.90625 597.480469 661.832031 597.488281 661.761719 597.488281 Z M 192.609375 598.214844 C 192.023438 598.214844 191.5 597.796875 191.382812 597.203125 C 190.730469 593.925781 190.152344 590.585938 189.660156 587.265625 C 189.558594 586.582031 190.03125 585.945312 190.71875 585.847656 C 191.402344 585.742188 192.039062 586.214844 192.140625 586.898438 C 192.625 590.175781 193.199219 593.480469 193.839844 596.714844 C 193.976562 597.394531 193.535156 598.058594 192.855469 598.1875 C 192.773438 598.207031 192.691406 598.214844 192.609375 598.214844 Z M 665.792969 617.136719 C 665.226562 617.136719 664.710938 616.746094 664.574219 616.167969 C 663.832031 612.960938 663.109375 609.652344 662.429688 606.347656 C 662.289062 605.667969 662.726562 605.003906 663.40625 604.867188 C 664.085938 604.726562 664.746094 605.164062 664.886719 605.839844 C 665.5625 609.128906 666.277344 612.414062 667.019531 615.597656 C 667.175781 616.273438 666.757812 616.945312 666.082031 617.105469 C 665.984375 617.128906 665.894531 617.136719 665.792969 617.136719 Z M 197.476562 617.652344 C 196.9375 617.652344 196.441406 617.304688 196.277344 616.761719 C 195.304688 613.5625 194.402344 610.289062 193.585938 607.042969 C 193.417969 606.375 193.828125 605.691406 194.5 605.523438 C 195.171875 605.351562 195.851562 605.765625 196.019531 606.433594 C 196.824219 609.636719 197.71875 612.871094 198.675781 616.035156 C 198.878906 616.699219 198.503906 617.398438 197.839844 617.601562 C 197.71875 617.636719 197.597656 617.652344 197.476562 617.652344 Z M 765.785156 623.546875 C 765.140625 623.546875 764.59375 623.058594 764.535156 622.40625 C 764.472656 621.71875 764.980469 621.109375 765.667969 621.046875 C 769.128906 620.726562 772.539062 620.558594 775.789062 620.550781 C 775.792969 620.550781 775.792969 620.550781 775.800781 620.550781 C 776.488281 620.550781 777.050781 621.105469 777.050781 621.792969 C 777.054688 622.488281 776.492188 623.054688 775.804688 623.054688 C 772.621094 623.0625 769.289062 623.230469 765.902344 623.542969 C 765.859375 623.546875 765.820312 623.546875 765.785156 623.546875 Z M 795.675781 625.226562 C 795.582031 625.226562 795.480469 625.214844 795.382812 625.1875 C 792.3125 624.445312 789.039062 623.886719 785.675781 623.535156 C 784.984375 623.460938 784.488281 622.847656 784.554688 622.15625 C 784.628906 621.46875 785.257812 620.96875 785.9375 621.039062 C 789.414062 621.40625 792.789062 621.980469 795.972656 622.75 C 796.648438 622.917969 797.0625 623.59375 796.894531 624.265625 C 796.761719 624.839844 796.246094 625.226562 795.675781 625.226562 Z M 746.265625 627.773438 C 745.757812 627.773438 745.273438 627.460938 745.089844 626.949219 C 744.851562 626.300781 745.183594 625.582031 745.835938 625.34375 C 749.296875 624.074219 752.585938 623.101562 755.59375 622.449219 C 756.273438 622.300781 756.9375 622.730469 757.082031 623.40625 C 757.234375 624.085938 756.800781 624.753906 756.125 624.898438 C 753.226562 625.523438 750.050781 626.464844 746.695312 627.699219 C 746.554688 627.75 746.414062 627.773438 746.265625 627.773438 Z M 814.03125 633.019531 C 813.792969 633.019531 813.558594 632.949219 813.34375 632.8125 C 810.667969 631.058594 807.761719 629.515625 804.710938 628.234375 C 804.070312 627.964844 803.773438 627.230469 804.039062 626.589844 C 804.308594 625.953125 805.042969 625.652344 805.679688 625.921875 C 808.875 627.265625 811.917969 628.878906 814.71875 630.71875 C 815.300781 631.097656 815.464844 631.875 815.082031 632.449219 C 814.84375 632.820312 814.441406 633.019531 814.03125 633.019531 Z M 728.027344 636.113281 C 727.582031 636.113281 727.144531 635.871094 726.921875 635.445312 C 726.597656 634.832031 726.832031 634.078125 727.441406 633.75 C 730.628906 632.070312 733.671875 630.554688 736.488281 629.25 C 737.113281 628.957031 737.863281 629.234375 738.152344 629.859375 C 738.441406 630.488281 738.171875 631.234375 737.542969 631.527344 C 734.765625 632.8125 731.757812 634.308594 728.613281 635.96875 C 728.429688 636.066406 728.226562 636.113281 728.027344 636.113281 Z M 204.230469 636.523438 C 203.738281 636.523438 203.273438 636.230469 203.074219 635.746094 C 201.789062 632.648438 200.570312 629.480469 199.441406 626.335938 C 199.207031 625.6875 199.546875 624.96875 200.199219 624.734375 C 200.851562 624.503906 201.570312 624.839844 201.804688 625.496094 C 202.914062 628.601562 204.121094 631.726562 205.390625 634.789062 C 205.65625 635.429688 205.351562 636.164062 204.710938 636.429688 C 204.554688 636.492188 204.394531 636.523438 204.230469 636.523438 Z M 670.902344 636.550781 C 670.367188 636.550781 669.863281 636.195312 669.699219 635.652344 C 668.761719 632.480469 667.855469 629.214844 666.992188 625.941406 C 666.816406 625.273438 667.21875 624.585938 667.890625 624.410156 C 668.558594 624.234375 669.242188 624.632812 669.417969 625.304688 C 670.273438 628.550781 671.175781 631.792969 672.101562 634.941406 C 672.304688 635.605469 671.921875 636.300781 671.257812 636.5 C 671.140625 636.53125 671.019531 636.550781 670.902344 636.550781 Z M 710.59375 646.058594 C 710.167969 646.058594 709.753906 645.84375 709.519531 645.453125 C 709.15625 644.863281 709.351562 644.089844 709.945312 643.738281 C 713.050781 641.863281 715.886719 640.191406 718.621094 638.621094 C 719.222656 638.277344 719.984375 638.488281 720.332031 639.089844 C 720.671875 639.6875 720.46875 640.457031 719.867188 640.800781 C 717.152344 642.355469 714.324219 644.019531 711.242188 645.882812 C 711.039062 646.003906 710.8125 646.058594 710.59375 646.058594 Z M 828.28125 646.929688 C 827.886719 646.929688 827.496094 646.742188 827.257812 646.390625 C 825.367188 643.6875 823.246094 641.179688 820.953125 638.933594 C 820.453125 638.449219 820.449219 637.652344 820.933594 637.160156 C 821.414062 636.660156 822.210938 636.65625 822.703125 637.140625 C 825.105469 639.492188 827.335938 642.121094 829.3125 644.957031 C 829.707031 645.523438 829.570312 646.304688 829 646.703125 C 828.785156 646.855469 828.53125 646.929688 828.28125 646.929688 Z M 212.796875 654.644531 C 212.347656 654.644531 211.914062 654.40625 211.6875 653.980469 C 210.109375 651.019531 208.585938 647.984375 207.160156 644.96875 C 206.863281 644.339844 207.132812 643.597656 207.757812 643.296875 C 208.382812 643.003906 209.132812 643.269531 209.429688 643.898438 C 210.835938 646.875 212.339844 649.871094 213.902344 652.800781 C 214.226562 653.414062 213.996094 654.167969 213.386719 654.496094 C 213.199219 654.597656 212.996094 654.644531 212.796875 654.644531 Z M 677.257812 655.605469 C 676.75 655.605469 676.269531 655.296875 676.078125 654.789062 C 674.929688 651.714844 673.796875 648.515625 672.726562 645.285156 C 672.503906 644.628906 672.859375 643.917969 673.519531 643.699219 C 674.179688 643.480469 674.886719 643.839844 675.101562 644.496094 C 676.167969 647.695312 677.289062 650.863281 678.425781 653.914062 C 678.671875 654.5625 678.34375 655.285156 677.691406 655.527344 C 677.546875 655.578125 677.402344 655.605469 677.257812 655.605469 Z M 693.550781 656.671875 C 693.132812 656.671875 692.730469 656.464844 692.492188 656.09375 C 692.117188 655.507812 692.292969 654.730469 692.871094 654.363281 C 695.761719 652.523438 698.601562 650.730469 701.375 649 C 701.960938 648.632812 702.730469 648.8125 703.101562 649.398438 C 703.46875 649.988281 703.289062 650.761719 702.703125 651.128906 C 699.929688 652.855469 697.105469 654.640625 694.21875 656.472656 C 694.011719 656.613281 693.78125 656.671875 693.550781 656.671875 Z M 836.933594 664.933594 C 836.398438 664.933594 835.910156 664.589844 835.738281 664.054688 C 834.730469 660.839844 833.535156 657.753906 832.167969 654.882812 C 831.875 654.261719 832.140625 653.511719 832.761719 653.214844 C 833.390625 652.917969 834.136719 653.183594 834.4375 653.808594 C 835.851562 656.785156 837.09375 659.980469 838.128906 663.308594 C 838.335938 663.96875 837.96875 664.671875 837.308594 664.878906 C 837.183594 664.917969 837.0625 664.933594 836.933594 664.933594 Z M 223.03125 671.832031 C 222.625 671.832031 222.226562 671.636719 221.984375 671.269531 C 220.140625 668.480469 218.339844 665.613281 216.632812 662.742188 C 216.277344 662.148438 216.472656 661.378906 217.066406 661.027344 C 217.660156 660.671875 218.429688 660.867188 218.785156 661.464844 C 220.472656 664.292969 222.253906 667.128906 224.078125 669.886719 C 224.460938 670.464844 224.300781 671.242188 223.722656 671.625 C 223.511719 671.765625 223.269531 671.832031 223.03125 671.832031 Z M 685.050781 674.09375 C 684.582031 674.09375 684.132812 673.828125 683.914062 673.375 C 682.691406 670.785156 681.484375 668.109375 680.324219 665.398438 C 679.332031 666.039062 678.339844 666.679688 677.339844 667.328125 C 676.757812 667.703125 675.980469 667.535156 675.597656 666.953125 C 675.230469 666.371094 675.394531 665.597656 675.976562 665.21875 C 678.835938 663.375 681.648438 661.554688 684.414062 659.777344 C 684.996094 659.402344 685.773438 659.570312 686.148438 660.15625 C 686.523438 660.738281 686.359375 661.511719 685.773438 661.886719 C 684.679688 662.59375 683.574219 663.304688 682.460938 664.023438 C 683.664062 666.835938 684.90625 669.617188 686.183594 672.300781 C 686.476562 672.925781 686.207031 673.671875 685.585938 673.972656 C 685.410156 674.050781 685.230469 674.09375 685.050781 674.09375 Z M 659.773438 678.390625 C 659.359375 678.390625 658.953125 678.183594 658.71875 677.808594 C 658.34375 677.230469 658.519531 676.453125 659.097656 676.082031 C 661.953125 674.253906 664.769531 672.445312 667.542969 670.660156 C 668.125 670.285156 668.902344 670.453125 669.277344 671.035156 C 669.652344 671.617188 669.480469 672.390625 668.902344 672.769531 C 666.125 674.558594 663.308594 676.363281 660.449219 678.191406 C 660.242188 678.324219 660.007812 678.390625 659.773438 678.390625 Z M 840.695312 684.597656 C 840.054688 684.597656 839.503906 684.105469 839.449219 683.453125 C 839.152344 680.082031 838.703125 676.78125 838.113281 673.640625 C 837.984375 672.960938 838.429688 672.304688 839.105469 672.179688 C 839.789062 672.050781 840.445312 672.496094 840.578125 673.179688 C 841.179688 676.398438 841.640625 679.785156 841.949219 683.234375 C 842.007812 683.921875 841.496094 684.53125 840.8125 684.589844 C 840.773438 684.59375 840.734375 684.597656 840.695312 684.597656 Z M 234.839844 688 C 234.472656 688 234.109375 687.839844 233.859375 687.53125 C 231.765625 684.917969 229.703125 682.230469 227.734375 679.539062 C 227.324219 678.976562 227.449219 678.191406 228.007812 677.785156 C 228.566406 677.375 229.351562 677.496094 229.757812 678.054688 C 231.707031 680.71875 233.742188 683.378906 235.816406 685.957031 C 236.25 686.496094 236.164062 687.289062 235.625 687.722656 C 235.394531 687.90625 235.117188 688 234.839844 688 Z M 642.796875 689.105469 C 642.378906 689.105469 641.976562 688.898438 641.734375 688.515625 C 641.367188 687.925781 641.550781 687.152344 642.140625 686.789062 C 645.007812 685.003906 647.839844 683.226562 650.632812 681.460938 C 651.21875 681.089844 651.996094 681.265625 652.363281 681.851562 C 652.730469 682.433594 652.5625 683.210938 651.976562 683.582031 C 649.171875 685.347656 646.335938 687.128906 643.464844 688.917969 C 643.257812 689.046875 643.027344 689.105469 642.796875 689.105469 Z M 694.539062 691.753906 C 694.113281 691.753906 693.699219 691.542969 693.464844 691.152344 C 691.75 688.335938 690.066406 685.386719 688.457031 682.386719 C 688.128906 681.777344 688.359375 681.015625 688.964844 680.691406 C 689.582031 680.359375 690.339844 680.589844 690.671875 681.199219 C 692.257812 684.164062 693.917969 687.074219 695.605469 689.851562 C 695.964844 690.445312 695.777344 691.214844 695.1875 691.574219 C 694.980469 691.699219 694.757812 691.753906 694.539062 691.753906 Z M 625.664062 699.558594 C 625.238281 699.558594 624.824219 699.339844 624.585938 698.945312 C 624.226562 698.351562 624.429688 697.582031 625.019531 697.226562 C 627.914062 695.5 630.777344 693.773438 633.605469 692.050781 C 634.195312 691.6875 634.96875 691.871094 635.328125 692.464844 C 635.683594 693.054688 635.503906 693.824219 634.90625 694.1875 C 632.074219 695.914062 629.207031 697.648438 626.304688 699.382812 C 626.105469 699.5 625.882812 699.558594 625.664062 699.558594 Z M 248.085938 703.027344 C 247.753906 703.027344 247.425781 702.898438 247.179688 702.640625 C 244.859375 700.234375 242.558594 697.746094 240.351562 695.234375 C 239.894531 694.71875 239.941406 693.925781 240.460938 693.464844 C 240.980469 693.007812 241.773438 693.058594 242.230469 693.582031 C 244.417969 696.054688 246.6875 698.523438 248.988281 700.902344 C 249.46875 701.402344 249.453125 702.195312 248.953125 702.675781 C 248.710938 702.910156 248.398438 703.027344 248.085938 703.027344 Z M 840.363281 704.59375 C 840.296875 704.59375 840.230469 704.589844 840.164062 704.582031 C 839.484375 704.472656 839.015625 703.828125 839.121094 703.144531 C 839.621094 700.035156 839.878906 696.738281 839.894531 693.355469 C 839.898438 692.660156 840.460938 692.105469 841.148438 692.105469 L 841.152344 692.105469 C 841.847656 692.109375 842.40625 692.675781 842.402344 693.363281 C 842.390625 696.878906 842.117188 700.300781 841.597656 703.539062 C 841.5 704.15625 840.96875 704.59375 840.363281 704.59375 Z M 705.96875 708.210938 C 705.601562 708.210938 705.238281 708.050781 704.992188 707.738281 C 702.929688 705.160156 700.910156 702.429688 698.960938 699.625 C 698.566406 699.054688 698.707031 698.277344 699.28125 697.878906 C 699.851562 697.488281 700.625 697.628906 701.023438 698.199219 C 702.9375 700.957031 704.929688 703.640625 706.949219 706.175781 C 707.386719 706.71875 707.292969 707.507812 706.75 707.941406 C 706.519531 708.121094 706.246094 708.210938 705.96875 708.210938 Z M 608.3125 709.648438 C 607.878906 709.648438 607.449219 709.417969 607.21875 709.007812 C 606.878906 708.410156 607.09375 707.640625 607.699219 707.300781 C 610.527344 705.703125 613.457031 704.027344 616.386719 702.316406 C 616.980469 701.96875 617.753906 702.171875 618.105469 702.769531 C 618.449219 703.367188 618.246094 704.136719 617.652344 704.484375 C 614.707031 706.199219 611.769531 707.878906 608.929688 709.484375 C 608.734375 709.59375 608.523438 709.648438 608.3125 709.648438 Z M 262.621094 716.816406 C 262.328125 716.816406 262.039062 716.714844 261.800781 716.511719 C 259.273438 714.316406 256.761719 712.035156 254.335938 709.738281 C 253.835938 709.261719 253.8125 708.46875 254.289062 707.96875 C 254.765625 707.464844 255.558594 707.441406 256.0625 707.921875 C 258.460938 710.191406 260.945312 712.449219 263.445312 714.617188 C 263.96875 715.070312 264.023438 715.863281 263.570312 716.386719 C 263.320312 716.671875 262.972656 716.816406 262.621094 716.816406 Z M 590.710938 719.285156 C 590.257812 719.285156 589.824219 719.042969 589.601562 718.617188 C 589.277344 718.007812 589.511719 717.246094 590.125 716.921875 C 593.035156 715.382812 596.003906 713.785156 598.941406 712.175781 C 599.554688 711.84375 600.316406 712.0625 600.640625 712.671875 C 600.980469 713.28125 600.757812 714.039062 600.148438 714.371094 C 597.195312 715.988281 594.214844 717.589844 591.292969 719.136719 C 591.109375 719.238281 590.910156 719.285156 590.710938 719.285156 Z M 719.566406 722.921875 C 719.261719 722.921875 718.953125 722.808594 718.714844 722.589844 C 716.285156 720.335938 713.875 717.921875 711.566406 715.417969 C 711.097656 714.910156 711.125 714.113281 711.632812 713.648438 C 712.144531 713.175781 712.9375 713.207031 713.40625 713.71875 C 715.675781 716.175781 718.03125 718.539062 720.414062 720.746094 C 720.925781 721.21875 720.957031 722.011719 720.484375 722.519531 C 720.238281 722.789062 719.902344 722.921875 719.566406 722.921875 Z M 833.570312 723.316406 C 833.34375 723.316406 833.113281 723.261719 832.914062 723.132812 C 832.324219 722.769531 832.140625 721.996094 832.5 721.410156 C 834.183594 718.664062 835.605469 715.710938 836.714844 712.617188 C 836.949219 711.964844 837.667969 711.625 838.316406 711.863281 C 838.972656 712.09375 839.308594 712.8125 839.074219 713.464844 C 837.910156 716.71875 836.410156 719.832031 834.636719 722.71875 C 834.40625 723.105469 833.988281 723.316406 833.570312 723.316406 Z M 572.828125 728.386719 C 572.363281 728.386719 571.917969 728.125 571.699219 727.679688 C 571.394531 727.058594 571.648438 726.308594 572.277344 726.003906 C 575.222656 724.566406 578.238281 723.0625 581.234375 721.539062 C 581.851562 721.222656 582.609375 721.46875 582.925781 722.085938 C 583.238281 722.699219 582.988281 723.457031 582.375 723.769531 C 579.359375 725.304688 576.332031 726.8125 573.375 728.253906 C 573.199219 728.34375 573.007812 728.386719 572.828125 728.386719 Z M 278.316406 729.28125 C 278.0625 729.28125 277.804688 729.199219 277.582031 729.039062 C 274.875 727.078125 272.171875 725.023438 269.554688 722.945312 C 269.011719 722.515625 268.921875 721.730469 269.351562 721.1875 C 269.785156 720.644531 270.570312 720.554688 271.113281 720.984375 C 273.703125 723.042969 276.375 725.066406 279.054688 727.007812 C 279.617188 727.417969 279.738281 728.199219 279.332031 728.761719 C 279.089844 729.097656 278.707031 729.28125 278.316406 729.28125 Z M 735.339844 735.214844 C 735.101562 735.214844 734.867188 735.148438 734.660156 735.011719 C 731.855469 733.199219 729.082031 731.226562 726.410156 729.144531 C 725.871094 728.71875 725.773438 727.925781 726.195312 727.382812 C 726.621094 726.835938 727.414062 726.742188 727.957031 727.164062 C 730.566406 729.203125 733.28125 731.136719 736.023438 732.902344 C 736.601562 733.28125 736.769531 734.054688 736.390625 734.636719 C 736.152344 735.007812 735.746094 735.214844 735.339844 735.214844 Z M 554.636719 736.863281 C 554.160156 736.863281 553.699219 736.589844 553.496094 736.121094 C 553.214844 735.488281 553.5 734.746094 554.132812 734.464844 C 557.136719 733.132812 560.203125 731.734375 563.234375 730.320312 C 563.871094 730.023438 564.613281 730.296875 564.90625 730.925781 C 565.199219 731.550781 564.925781 732.300781 564.300781 732.589844 C 561.25 734.015625 558.167969 735.417969 555.148438 736.757812 C 554.984375 736.832031 554.808594 736.863281 554.636719 736.863281 Z M 819.917969 737.828125 C 819.53125 737.828125 819.148438 737.652344 818.902344 737.308594 C 818.496094 736.75 818.621094 735.964844 819.183594 735.5625 C 821.890625 733.601562 824.371094 731.441406 826.558594 729.132812 C 827.03125 728.632812 827.828125 728.609375 828.328125 729.085938 C 828.832031 729.5625 828.851562 730.355469 828.378906 730.859375 C 826.082031 733.277344 823.484375 735.546875 820.652344 737.59375 C 820.429688 737.753906 820.171875 737.828125 819.917969 737.828125 Z M 295.035156 740.332031 C 294.816406 740.332031 294.59375 740.273438 294.394531 740.152344 C 291.527344 738.433594 288.660156 736.621094 285.867188 734.777344 C 285.289062 734.394531 285.128906 733.617188 285.511719 733.039062 C 285.894531 732.460938 286.671875 732.304688 287.25 732.683594 C 290.011719 734.515625 292.851562 736.300781 295.683594 738.003906 C 296.277344 738.355469 296.46875 739.128906 296.113281 739.722656 C 295.878906 740.113281 295.464844 740.332031 295.035156 740.332031 Z M 753.054688 744.496094 C 752.890625 744.496094 752.730469 744.46875 752.574219 744.402344 C 749.457031 743.117188 746.371094 741.675781 743.394531 740.117188 C 742.78125 739.792969 742.546875 739.035156 742.863281 738.425781 C 743.191406 737.808594 743.945312 737.574219 744.558594 737.894531 C 747.46875 739.417969 750.484375 740.828125 753.535156 742.082031 C 754.171875 742.347656 754.476562 743.082031 754.210938 743.71875 C 754.011719 744.203125 753.542969 744.496094 753.054688 744.496094 Z M 536.144531 744.640625 C 535.644531 744.640625 535.171875 744.34375 534.980469 743.851562 C 534.722656 743.207031 535.039062 742.480469 535.683594 742.222656 C 538.746094 741.007812 541.863281 739.738281 544.945312 738.4375 C 545.585938 738.171875 546.320312 738.46875 546.589844 739.109375 C 546.855469 739.742188 546.554688 740.480469 545.917969 740.75 C 542.820312 742.054688 539.683594 743.335938 536.601562 744.554688 C 536.457031 744.617188 536.300781 744.640625 536.144531 744.640625 Z M 802.085938 746.859375 C 801.558594 746.859375 801.066406 746.527344 800.894531 746 C 800.679688 745.339844 801.039062 744.628906 801.695312 744.414062 C 804.507812 743.492188 807.28125 742.367188 809.9375 741.066406 C 810.21875 740.929688 810.496094 740.789062 810.78125 740.652344 C 811.398438 740.335938 812.152344 740.585938 812.464844 741.203125 C 812.777344 741.824219 812.527344 742.574219 811.910156 742.886719 C 811.621094 743.035156 811.332031 743.179688 811.039062 743.324219 C 808.28125 744.667969 805.398438 745.839844 802.476562 746.796875 C 802.351562 746.839844 802.21875 746.859375 802.085938 746.859375 Z M 772.371094 749.679688 C 772.320312 749.679688 772.269531 749.675781 772.214844 749.667969 C 768.859375 749.253906 765.492188 748.597656 762.203125 747.714844 C 761.535156 747.53125 761.140625 746.84375 761.320312 746.175781 C 761.503906 745.507812 762.191406 745.109375 762.855469 745.292969 C 766.027344 746.144531 769.28125 746.78125 772.523438 747.179688 C 773.210938 747.261719 773.695312 747.890625 773.613281 748.578125 C 773.535156 749.214844 772.992188 749.679688 772.371094 749.679688 Z M 312.648438 749.890625 C 312.464844 749.890625 312.277344 749.847656 312.101562 749.761719 C 309.101562 748.296875 306.089844 746.75 303.144531 745.152344 C 302.53125 744.820312 302.308594 744.058594 302.640625 743.449219 C 302.96875 742.84375 303.730469 742.617188 304.339844 742.945312 C 307.253906 744.527344 310.234375 746.0625 313.199219 747.511719 C 313.820312 747.8125 314.082031 748.5625 313.777344 749.1875 C 313.558594 749.632812 313.113281 749.890625 312.648438 749.890625 Z M 782.378906 750.191406 C 781.699219 750.191406 781.136719 749.648438 781.125 748.964844 C 781.109375 748.273438 781.660156 747.699219 782.355469 747.6875 C 785.640625 747.621094 788.9375 747.308594 792.148438 746.769531 C 792.824219 746.652344 793.476562 747.113281 793.597656 747.796875 C 793.707031 748.480469 793.253906 749.125 792.566406 749.242188 C 789.234375 749.804688 785.8125 750.125 782.40625 750.191406 C 782.394531 750.191406 782.386719 750.191406 782.378906 750.191406 Z M 517.339844 751.632812 C 516.820312 751.632812 516.332031 751.308594 516.152344 750.785156 C 515.929688 750.132812 516.273438 749.417969 516.925781 749.191406 C 520.039062 748.113281 523.203125 746.976562 526.34375 745.8125 C 526.988281 745.570312 527.714844 745.898438 527.957031 746.550781 C 528.195312 747.199219 527.863281 747.921875 527.214844 748.160156 C 524.0625 749.335938 520.875 750.480469 517.75 751.5625 C 517.613281 751.609375 517.472656 751.632812 517.339844 751.632812 Z M 498.234375 757.746094 C 497.691406 757.746094 497.191406 757.394531 497.035156 756.847656 C 496.835938 756.183594 497.21875 755.488281 497.878906 755.289062 C 501.046875 754.359375 504.265625 753.375 507.441406 752.351562 C 508.101562 752.148438 508.808594 752.511719 509.019531 753.167969 C 509.230469 753.828125 508.863281 754.53125 508.207031 754.742188 C 505.011719 755.765625 501.777344 756.761719 498.585938 757.695312 C 498.46875 757.730469 498.351562 757.746094 498.234375 757.746094 Z M 331.027344 757.878906 C 330.878906 757.878906 330.726562 757.851562 330.578125 757.796875 C 327.460938 756.601562 324.320312 755.316406 321.25 753.984375 C 320.617188 753.707031 320.324219 752.96875 320.601562 752.335938 C 320.878906 751.699219 321.617188 751.40625 322.25 751.683594 C 325.289062 753.003906 328.390625 754.273438 331.476562 755.457031 C 332.121094 755.703125 332.445312 756.425781 332.199219 757.074219 C 332.003906 757.574219 331.53125 757.878906 331.027344 757.878906 Z M 478.851562 762.914062 C 478.285156 762.914062 477.769531 762.527344 477.636719 761.953125 C 477.472656 761.277344 477.886719 760.605469 478.5625 760.441406 C 481.773438 759.671875 485.035156 758.851562 488.253906 757.988281 C 488.921875 757.8125 489.609375 758.207031 489.785156 758.875 C 489.96875 759.546875 489.566406 760.234375 488.898438 760.410156 C 485.660156 761.277344 482.378906 762.109375 479.148438 762.878906 C 479.046875 762.902344 478.949219 762.914062 478.851562 762.914062 Z M 350.035156 764.214844 C 349.921875 764.214844 349.808594 764.199219 349.695312 764.164062 C 346.480469 763.253906 343.242188 762.25 340.066406 761.191406 C 339.40625 760.972656 339.050781 760.265625 339.273438 759.609375 C 339.488281 758.953125 340.203125 758.597656 340.855469 758.816406 C 344 759.863281 347.203125 760.847656 350.378906 761.753906 C 351.046875 761.941406 351.433594 762.632812 351.242188 763.296875 C 351.085938 763.851562 350.582031 764.214844 350.035156 764.214844 Z M 459.230469 767.050781 C 458.632812 767.050781 458.109375 766.628906 458 766.023438 C 457.875 765.34375 458.324219 764.6875 459.003906 764.5625 C 462.253906 763.972656 465.554688 763.320312 468.8125 762.632812 C 469.484375 762.492188 470.15625 762.925781 470.296875 763.601562 C 470.441406 764.28125 470.007812 764.945312 469.332031 765.089844 C 466.046875 765.78125 462.730469 766.429688 459.453125 767.03125 C 459.378906 767.042969 459.300781 767.050781 459.230469 767.050781 Z M 369.542969 768.792969 C 369.464844 768.792969 369.386719 768.785156 369.308594 768.773438 C 366.027344 768.15625 362.707031 767.457031 359.449219 766.691406 C 358.773438 766.535156 358.355469 765.859375 358.515625 765.1875 C 358.671875 764.511719 359.347656 764.09375 360.023438 764.253906 C 363.246094 765.011719 366.523438 765.699219 369.769531 766.304688 C 370.449219 766.433594 370.898438 767.089844 370.773438 767.769531 C 370.660156 768.371094 370.132812 768.792969 369.542969 768.792969 Z M 439.40625 770.09375 C 438.78125 770.09375 438.238281 769.628906 438.164062 768.992188 C 438.078125 768.304688 438.566406 767.675781 439.253906 767.59375 C 442.527344 767.1875 445.855469 766.726562 449.148438 766.21875 C 449.828125 766.109375 450.472656 766.582031 450.578125 767.265625 C 450.683594 767.953125 450.214844 768.59375 449.53125 768.699219 C 446.214844 769.207031 442.863281 769.671875 439.5625 770.082031 C 439.511719 770.089844 439.457031 770.09375 439.40625 770.09375 Z M 389.390625 771.53125 C 389.351562 771.53125 389.316406 771.527344 389.277344 771.523438 C 385.953125 771.230469 382.582031 770.84375 379.261719 770.386719 C 378.574219 770.292969 378.09375 769.660156 378.191406 768.972656 C 378.28125 768.289062 378.917969 767.804688 379.601562 767.90625 C 382.886719 768.359375 386.214844 768.734375 389.5 769.03125 C 390.1875 769.089844 390.699219 769.699219 390.636719 770.386719 C 390.578125 771.042969 390.03125 771.53125 389.390625 771.53125 Z M 419.4375 771.972656 C 418.78125 771.972656 418.230469 771.464844 418.1875 770.800781 C 418.144531 770.105469 418.671875 769.515625 419.363281 769.472656 C 419.941406 769.4375 420.515625 769.398438 421.089844 769.359375 C 423.828125 769.167969 426.597656 768.941406 429.320312 768.679688 C 430.011719 768.609375 430.621094 769.121094 430.6875 769.808594 C 430.753906 770.5 430.246094 771.113281 429.558594 771.175781 C 426.816406 771.4375 424.023438 771.664062 421.265625 771.859375 C 420.683594 771.898438 420.097656 771.941406 419.515625 771.972656 C 419.488281 771.972656 419.464844 771.972656 419.4375 771.972656 Z M 407.441406 772.339844 C 404.761719 772.339844 402.039062 772.289062 399.339844 772.179688 C 398.648438 772.152344 398.109375 771.566406 398.140625 770.875 C 398.164062 770.183594 398.726562 769.660156 399.441406 769.671875 C 402.761719 769.804688 406.105469 769.859375 409.402344 769.824219 C 410.101562 769.824219 410.664062 770.371094 410.671875 771.0625 C 410.675781 771.757812 410.121094 772.324219 409.429688 772.332031 C 408.765625 772.335938 408.105469 772.339844 407.441406 772.339844 " fill-opacity="1" fill-rule="nonzero"/><path fill="#004aad" d="M 499.554688 336.757812 C 499.535156 336.757812 499.519531 336.757812 499.503906 336.757812 C 496.246094 336.628906 492.859375 336.585938 489.542969 336.636719 C 488.867188 336.648438 488.285156 336.09375 488.273438 335.402344 C 488.261719 334.710938 488.816406 334.140625 489.507812 334.128906 C 492.867188 334.078125 496.300781 334.121094 499.605469 334.253906 C 500.296875 334.277344 500.832031 334.863281 500.804688 335.558594 C 500.78125 336.230469 500.222656 336.757812 499.554688 336.757812 Z M 469.503906 337.902344 C 468.871094 337.902344 468.324219 337.429688 468.253906 336.785156 C 468.179688 336.097656 468.675781 335.480469 469.363281 335.402344 C 472.738281 335.035156 476.121094 334.742188 479.421875 334.527344 C 480.109375 334.488281 480.703125 335.007812 480.75 335.699219 C 480.796875 336.386719 480.269531 336.984375 479.578125 337.03125 C 476.316406 337.238281 472.972656 337.53125 469.636719 337.894531 C 469.59375 337.898438 469.546875 337.902344 469.503906 337.902344 Z M 519.5 338.78125 C 519.429688 338.78125 519.363281 338.773438 519.289062 338.761719 C 516.097656 338.226562 512.78125 337.78125 509.433594 337.445312 C 508.742188 337.378906 508.242188 336.761719 508.308594 336.074219 C 508.378906 335.386719 508.996094 334.882812 509.679688 334.953125 C 513.085938 335.292969 516.457031 335.742188 519.707031 336.289062 C 520.390625 336.402344 520.851562 337.050781 520.734375 337.734375 C 520.632812 338.347656 520.101562 338.78125 519.5 338.78125 Z M 449.664062 340.949219 C 449.078125 340.949219 448.554688 340.535156 448.4375 339.9375 C 448.304688 339.257812 448.746094 338.597656 449.421875 338.460938 C 452.707031 337.816406 456.050781 337.230469 459.359375 336.726562 C 460.042969 336.613281 460.6875 337.085938 460.792969 337.773438 C 460.894531 338.457031 460.425781 339.097656 459.742188 339.199219 C 456.46875 339.703125 453.15625 340.285156 449.910156 340.921875 C 449.828125 340.941406 449.742188 340.949219 449.664062 340.949219 Z M 538.015625 343.292969 C 537.886719 343.292969 537.753906 343.273438 537.625 343.230469 C 534.847656 342.320312 531.953125 341.492188 529.019531 340.769531 C 528.347656 340.601562 527.9375 339.925781 528.101562 339.253906 C 528.269531 338.582031 528.949219 338.171875 529.621094 338.335938 C 532.613281 339.070312 535.570312 339.917969 538.40625 340.847656 C 539.066406 341.0625 539.421875 341.773438 539.207031 342.429688 C 539.03125 342.960938 538.546875 343.292969 538.015625 343.292969 Z M 430.167969 345.746094 C 429.640625 345.746094 429.148438 345.40625 428.972656 344.875 C 428.761719 344.21875 429.121094 343.511719 429.78125 343.296875 C 429.929688 343.25 433.464844 342.109375 439.5625 340.628906 C 440.238281 340.464844 440.917969 340.878906 441.082031 341.550781 C 441.242188 342.222656 440.832031 342.898438 440.15625 343.0625 C 434.15625 344.519531 430.585938 345.667969 430.554688 345.679688 C 430.425781 345.722656 430.296875 345.746094 430.167969 345.746094 " fill-opacity="1" fill-rule="nonzero"/><path fill="#004aad" d="M 517.171875 278.414062 C 516.960938 278.414062 516.746094 278.355469 516.546875 278.246094 C 513.613281 276.558594 510.644531 275.0625 507.71875 273.796875 C 507.082031 273.523438 506.792969 272.78125 507.066406 272.152344 C 507.34375 271.515625 508.082031 271.222656 508.71875 271.496094 C 511.726562 272.796875 514.78125 274.339844 517.796875 276.070312 C 518.402344 276.414062 518.605469 277.179688 518.261719 277.777344 C 518.03125 278.1875 517.605469 278.414062 517.171875 278.414062 Z M 533.554688 289.964844 C 533.269531 289.964844 532.980469 289.871094 532.75 289.675781 C 530.175781 287.507812 527.53125 285.460938 524.894531 283.59375 C 524.332031 283.195312 524.195312 282.414062 524.597656 281.847656 C 524.996094 281.285156 525.777344 281.148438 526.34375 281.546875 C 529.039062 283.457031 531.738281 285.546875 534.363281 287.753906 C 534.894531 288.199219 534.960938 288.992188 534.515625 289.519531 C 534.265625 289.816406 533.914062 289.964844 533.554688 289.964844 Z M 547.820312 304.085938 C 547.457031 304.085938 547.09375 303.921875 546.84375 303.617188 C 546.828125 303.585938 544.371094 300.566406 540.101562 296.367188 C 539.601562 295.878906 539.601562 295.085938 540.085938 294.589844 C 540.566406 294.097656 541.363281 294.09375 541.859375 294.578125 C 546.242188 298.894531 548.695312 301.914062 548.796875 302.042969 C 549.234375 302.578125 549.148438 303.367188 548.609375 303.804688 C 548.378906 303.988281 548.097656 304.085938 547.820312 304.085938 " fill-opacity="1" fill-rule="nonzero"/><path fill="#004aad" d="M 805.054688 688.160156 C 805.054688 699.800781 787.363281 727.007812 781.679688 735.449219 C 780.847656 736.679688 779.03125 736.679688 778.203125 735.449219 C 772.519531 727.007812 754.828125 699.800781 754.828125 688.160156 C 754.828125 674.296875 766.070312 663.054688 779.941406 663.054688 C 793.808594 663.054688 805.054688 674.296875 805.054688 688.160156 " fill-opacity="1" fill-rule="nonzero"/><path fill="#ffffff" d="M 788.933594 688.160156 C 788.933594 693.128906 784.902344 697.160156 779.933594 697.160156 C 774.96875 697.160156 770.9375 693.128906 770.9375 688.160156 C 770.9375 683.195312 774.96875 679.167969 779.933594 679.167969 C 784.902344 679.167969 788.933594 683.195312 788.933594 688.160156 " fill-opacity="1" fill-rule="nonzero"/></svg>